<?xml version="1.0" encoding="UTF-8"?>
<!DOCTYPE svg PUBLIC "-//W3C//DTD SVG 1.1//EN" "http://www.w3.org/Graphics/SVG/1.1/DTD/svg11.dtd">
<svg xmlns="http://www.w3.org/2000/svg" version="1.1" width="2196px" height="924px" style="shape-rendering:geometricPrecision; text-rendering:geometricPrecision; image-rendering:optimizeQuality; fill-rule:evenodd; clip-rule:evenodd" xmlns:xlink="http://www.w3.org/1999/xlink">
<g><path style="opacity:1" fill="#fefefe" d="M -0.5,-0.5 C 731.5,-0.5 1463.5,-0.5 2195.5,-0.5C 2195.5,307.5 2195.5,615.5 2195.5,923.5C 1463.5,923.5 731.5,923.5 -0.5,923.5C -0.5,615.5 -0.5,307.5 -0.5,-0.5 Z"/></g>
<g><path style="opacity:1" fill="#2a2b2e" d="M 533.5,96.5 C 531.5,96.5 529.5,96.5 527.5,96.5C 527.5,104.167 527.5,111.833 527.5,119.5C 526.167,119.5 524.833,119.5 523.5,119.5C 523.5,111.833 523.5,104.167 523.5,96.5C 522.167,96.5 520.833,96.5 519.5,96.5C 519.5,95.5 519.5,94.5 519.5,93.5C 520.833,93.5 522.167,93.5 523.5,93.5C 522.833,85.5 526.5,81.8333 534.5,82.5C 534.5,83.8333 534.5,85.1667 534.5,86.5C 529.306,85.8553 526.972,88.1886 527.5,93.5C 529.5,93.5 531.5,93.5 533.5,93.5C 533.5,94.5 533.5,95.5 533.5,96.5 Z"/></g>
<g><path style="opacity:1" fill="#2b2c2f" d="M 844.5,119.5 C 844.5,111.833 844.5,104.167 844.5,96.5C 843.167,96.5 841.833,96.5 840.5,96.5C 840.5,95.5 840.5,94.5 840.5,93.5C 841.833,93.5 843.167,93.5 844.5,93.5C 843.167,84.8333 846.833,81.1667 855.5,82.5C 855.5,83.8333 855.5,85.1667 855.5,86.5C 849.5,85.1667 847.167,87.5 848.5,93.5C 850.167,93.5 851.833,93.5 853.5,93.5C 853.5,94.5 853.5,95.5 853.5,96.5C 851.833,96.5 850.167,96.5 848.5,96.5C 848.5,104.167 848.5,111.833 848.5,119.5C 847.167,119.5 845.833,119.5 844.5,119.5 Z"/></g>
<g><path style="opacity:1" fill="#1f2123" d="M 896.5,82.5 C 897.833,82.5 899.167,82.5 900.5,82.5C 900.5,94.8333 900.5,107.167 900.5,119.5C 899.167,119.5 897.833,119.5 896.5,119.5C 896.5,107.167 896.5,94.8333 896.5,82.5 Z"/></g>
<g><path style="opacity:1" fill="#1f2123" d="M 1347.5,82.5 C 1348.83,82.5 1350.17,82.5 1351.5,82.5C 1351.5,94.8333 1351.5,107.167 1351.5,119.5C 1350.17,119.5 1348.83,119.5 1347.5,119.5C 1347.5,107.167 1347.5,94.8333 1347.5,82.5 Z"/></g>
<g><path style="opacity:1" fill="#292a2d" d="M 566.5,83.5 C 567.833,83.5 569.167,83.5 570.5,83.5C 570.334,87.8461 570.501,92.1794 571,96.5C 574.795,93.1966 578.962,92.6966 583.5,95C 584.126,95.7504 584.626,96.5838 585,97.5C 585.5,104.826 585.666,112.159 585.5,119.5C 584.167,119.5 582.833,119.5 581.5,119.5C 581.666,112.825 581.5,106.158 581,99.5C 577.381,96.6572 574.048,96.9905 571,100.5C 570.5,106.825 570.334,113.158 570.5,119.5C 569.167,119.5 567.833,119.5 566.5,119.5C 566.5,107.5 566.5,95.5 566.5,83.5 Z"/></g>
<g><path style="opacity:1" fill="#353638" d="M 1044.5,84.5 C 1047.91,84.3838 1049.24,86.0504 1048.5,89.5C 1044.07,90.0776 1042.73,88.4109 1044.5,84.5 Z"/></g>
<g><path style="opacity:1" fill="#353638" d="M 1359.5,84.5 C 1362.91,84.3838 1364.24,86.0504 1363.5,89.5C 1359.07,90.0776 1357.73,88.4109 1359.5,84.5 Z"/></g>
<g><path style="opacity:1" fill="#1f2123" d="M 97.5,104.5 C 91.69,103.51 85.69,103.177 79.5,103.5C 79.5,108.833 79.5,114.167 79.5,119.5C 78.1667,119.5 76.8333,119.5 75.5,119.5C 75.5,108.167 75.5,96.8333 75.5,85.5C 76.8333,85.5 78.1667,85.5 79.5,85.5C 79.5,90.5 79.5,95.5 79.5,100.5C 85.5,100.5 91.5,100.5 97.5,100.5C 97.5,95.5 97.5,90.5 97.5,85.5C 98.8333,85.5 100.167,85.5 101.5,85.5C 101.5,96.8333 101.5,108.167 101.5,119.5C 100.167,119.5 98.8333,119.5 97.5,119.5C 97.5,114.5 97.5,109.5 97.5,104.5 Z"/></g>
<g><path style="opacity:1" fill="#27282b" d="M 1427.5,85.5 C 1433.16,84.4112 1437.66,86.0779 1441,90.5C 1441.68,96.8172 1439.34,101.817 1434,105.5C 1433.51,106.793 1433.34,108.127 1433.5,109.5C 1432.17,109.5 1430.83,109.5 1429.5,109.5C 1429.34,107.801 1429.51,106.134 1430,104.5C 1432.71,102.129 1435.04,99.4628 1437,96.5C 1437.76,89.9473 1434.93,87.7806 1428.5,90C 1427.55,92.9101 1425.55,94.0768 1422.5,93.5C 1422.35,92.448 1422.52,91.448 1423,90.5C 1424.71,88.9625 1426.21,87.2959 1427.5,85.5 Z"/></g>
<g><path style="opacity:1" fill="#2f3032" d="M 551.5,87.5 C 553.167,87.5 554.833,87.5 556.5,87.5C 556.5,89.5 556.5,91.5 556.5,93.5C 557.833,93.5 559.167,93.5 560.5,93.5C 560.5,94.5 560.5,95.5 560.5,96.5C 559.167,96.5 557.833,96.5 556.5,96.5C 556.5,102.833 556.5,109.167 556.5,115.5C 557.833,115.5 559.167,115.5 560.5,115.5C 560.5,116.833 560.5,118.167 560.5,119.5C 556.51,120.384 553.677,119.051 552,115.5C 551.5,109.175 551.334,102.842 551.5,96.5C 550.167,96.5 548.833,96.5 547.5,96.5C 547.5,95.5 547.5,94.5 547.5,93.5C 548.833,93.5 550.167,93.5 551.5,93.5C 551.5,91.5 551.5,89.5 551.5,87.5 Z"/></g>
<g><path style="opacity:1" fill="#222326" d="M 788.5,87.5 C 789.833,87.5 791.167,87.5 792.5,87.5C 792.5,89.5 792.5,91.5 792.5,93.5C 794.167,93.5 795.833,93.5 797.5,93.5C 797.5,94.5 797.5,95.5 797.5,96.5C 795.833,96.5 794.167,96.5 792.5,96.5C 792.334,102.509 792.501,108.509 793,114.5C 794.356,115.38 795.856,115.714 797.5,115.5C 797.5,116.833 797.5,118.167 797.5,119.5C 793.51,120.384 790.677,119.051 789,115.5C 788.5,109.175 788.334,102.842 788.5,96.5C 786.833,96.5 785.167,96.5 783.5,96.5C 783.5,95.5 783.5,94.5 783.5,93.5C 785.167,93.5 786.833,93.5 788.5,93.5C 788.5,91.5 788.5,89.5 788.5,87.5 Z"/></g>
<g><path style="opacity:1" fill="#2f3032" d="M 959.5,87.5 C 961.167,87.5 962.833,87.5 964.5,87.5C 964.5,89.5 964.5,91.5 964.5,93.5C 965.833,93.5 967.167,93.5 968.5,93.5C 968.5,94.5 968.5,95.5 968.5,96.5C 967.167,96.5 965.833,96.5 964.5,96.5C 964.5,102.833 964.5,109.167 964.5,115.5C 965.833,115.5 967.167,115.5 968.5,115.5C 968.5,116.833 968.5,118.167 968.5,119.5C 964.51,120.384 961.677,119.051 960,115.5C 959.5,109.175 959.334,102.842 959.5,96.5C 958.167,96.5 956.833,96.5 955.5,96.5C 955.5,95.5 955.5,94.5 955.5,93.5C 956.833,93.5 958.167,93.5 959.5,93.5C 959.5,91.5 959.5,89.5 959.5,87.5 Z"/></g>
<g><path style="opacity:1" fill="#222326" d="M 1181.5,87.5 C 1182.83,87.5 1184.17,87.5 1185.5,87.5C 1185.5,89.5 1185.5,91.5 1185.5,93.5C 1187.17,93.5 1188.83,93.5 1190.5,93.5C 1190.5,94.5 1190.5,95.5 1190.5,96.5C 1188.83,96.5 1187.17,96.5 1185.5,96.5C 1185.33,102.509 1185.5,108.509 1186,114.5C 1187.36,115.38 1188.86,115.714 1190.5,115.5C 1190.5,116.833 1190.5,118.167 1190.5,119.5C 1186.51,120.384 1183.68,119.051 1182,115.5C 1181.5,109.175 1181.33,102.842 1181.5,96.5C 1179.83,96.5 1178.17,96.5 1176.5,96.5C 1176.5,95.5 1176.5,94.5 1176.5,93.5C 1178.17,93.5 1179.83,93.5 1181.5,93.5C 1181.5,91.5 1181.5,89.5 1181.5,87.5 Z"/></g>
<g><path style="opacity:1" fill="#2a2b2e" d="M 115.5,93.5 C 129.456,94.037 133.956,101.037 129,114.5C 125.562,119.081 121.062,120.581 115.5,119C 112.667,117.5 110.5,115.333 109,112.5C 106.564,104.313 108.731,97.98 115.5,93.5 Z"/></g>
<g><path style="opacity:1" fill="#2b2c2f" d="M 134.5,93.5 C 136.144,93.2865 137.644,93.6198 139,94.5C 140.056,100.729 141.722,106.729 144,112.5C 145.354,106.416 147.021,100.416 149,94.5C 150.356,93.6198 151.856,93.2865 153.5,93.5C 155.174,99.8592 157.007,106.193 159,112.5C 160.976,106.265 162.476,99.9318 163.5,93.5C 164.833,93.5 166.167,93.5 167.5,93.5C 165.482,102.189 163.482,110.856 161.5,119.5C 160.022,119.762 158.689,119.429 157.5,118.5C 155.418,112.418 153.252,106.418 151,100.5C 148.661,106.684 146.828,113.018 145.5,119.5C 144.167,119.5 142.833,119.5 141.5,119.5C 138.917,110.93 136.584,102.263 134.5,93.5 Z"/></g>
<g><path style="opacity:1" fill="#2b2c2f" d="M 189.5,93.5 C 194.765,92.5706 199.265,93.9039 203,97.5C 203.202,104.55 203.702,111.55 204.5,118.5C 202.955,119.452 201.288,119.785 199.5,119.5C 199.649,118.448 199.483,117.448 199,116.5C 194.886,119.909 190.553,120.242 186,117.5C 182.449,112.907 182.949,108.74 187.5,105C 191.363,103.646 195.363,103.146 199.5,103.5C 199.133,97.8442 196.133,96.0109 190.5,98C 188.919,100.395 186.919,100.895 184.5,99.5C 185.51,96.8588 187.176,94.8588 189.5,93.5 Z"/></g>
<g><path style="opacity:1" fill="#2a2b2e" d="M 208.5,94.5 C 209.919,93.5489 211.585,93.2155 213.5,93.5C 214.213,100.021 215.713,106.354 218,112.5C 223.028,87.1815 228.028,87.1815 233,112.5C 235.29,106.339 236.79,100.005 237.5,93.5C 239.199,93.3398 240.866,93.5065 242.5,94C 239.467,102.299 237.133,110.799 235.5,119.5C 234.022,119.762 232.689,119.429 231.5,118.5C 230.014,112.537 227.847,106.871 225,101.5C 222.855,107.415 221.022,113.415 219.5,119.5C 218.167,119.5 216.833,119.5 215.5,119.5C 213.735,110.889 211.402,102.556 208.5,94.5 Z"/></g>
<g><path style="opacity:1" fill="#2c2d30" d="M 252.5,93.5 C 258.008,92.7219 262.508,94.3885 266,98.5C 266.204,105.217 266.704,111.883 267.5,118.5C 265.955,119.452 264.288,119.785 262.5,119.5C 262.372,116.226 261.039,116.059 258.5,119C 247.996,120.163 244.662,115.83 248.5,106C 252.546,103.826 256.879,102.993 261.5,103.5C 261.739,101.533 261.406,99.6995 260.5,98C 257.833,97.3333 255.167,97.3333 252.5,98C 251.383,99.8921 249.716,100.725 247.5,100.5C 248.002,97.3315 249.669,94.9981 252.5,93.5 Z"/></g>
<g><path style="opacity:1" fill="#212225" d="M 273.5,93.5 C 274.833,93.5 276.167,93.5 277.5,93.5C 277.443,97.1331 278.443,97.2998 280.5,94C 282.134,93.5065 283.801,93.3398 285.5,93.5C 285.5,94.8333 285.5,96.1667 285.5,97.5C 282.348,96.9586 279.848,97.9586 278,100.5C 277.5,106.825 277.334,113.158 277.5,119.5C 276.167,119.5 274.833,119.5 273.5,119.5C 273.5,110.833 273.5,102.167 273.5,93.5 Z"/></g>
<g><path style="opacity:1" fill="#2a2b2e" d="M 295.5,93.5 C 305.117,93.1165 309.783,97.7832 309.5,107.5C 303.833,107.5 298.167,107.5 292.5,107.5C 292.253,110.505 293.253,113.005 295.5,115C 299.997,115.729 304.33,115.229 308.5,113.5C 308.67,114.822 308.337,115.989 307.5,117C 300.99,120.906 295.157,120.073 290,114.5C 286.549,105.89 288.382,98.8904 295.5,93.5 Z"/></g>
<g><path style="opacity:1" fill="#2b2c2f" d="M 331.5,93.5 C 336.765,92.5706 341.265,93.9039 345,97.5C 345.202,104.55 345.702,111.55 346.5,118.5C 344.955,119.452 343.288,119.785 341.5,119.5C 341.649,118.448 341.483,117.448 341,116.5C 336.886,119.909 332.553,120.242 328,117.5C 324.449,112.907 324.949,108.74 329.5,105C 333.363,103.646 337.363,103.146 341.5,103.5C 341.133,97.8442 338.133,96.0109 332.5,98C 330.919,100.395 328.919,100.895 326.5,99.5C 327.51,96.8588 329.176,94.8588 331.5,93.5 Z"/></g>
<g><path style="opacity:1" fill="#212225" d="M 352.5,93.5 C 353.833,93.5 355.167,93.5 356.5,93.5C 356.443,97.1331 357.443,97.2998 359.5,94C 361.134,93.5065 362.801,93.3398 364.5,93.5C 364.5,94.8333 364.5,96.1667 364.5,97.5C 361.348,96.9586 358.848,97.9586 357,100.5C 356.5,106.825 356.334,113.158 356.5,119.5C 355.167,119.5 353.833,119.5 352.5,119.5C 352.5,110.833 352.5,102.167 352.5,93.5 Z"/></g>
<g><path style="opacity:1" fill="#2c2d30" d="M 388.5,102.5 C 388.5,104.167 388.5,105.833 388.5,107.5C 382.833,107.5 377.167,107.5 371.5,107.5C 371.263,108.791 371.596,109.791 372.5,110.5C 372.859,112.371 373.859,113.871 375.5,115C 379.591,116.227 383.091,115.394 386,112.5C 386.833,113.333 387.667,114.167 388.5,115C 382.475,120.781 376.309,120.948 370,115.5C 365.498,106.909 366.998,99.7419 374.5,94C 382.234,92.026 386.901,94.8593 388.5,102.5 Z"/></g>
<g><path style="opacity:1" fill="#2b2c2e" d="M 403.5,93.5 C 405.167,93.5 406.833,93.5 408.5,93.5C 410.023,99.572 411.857,105.572 414,111.5C 416.128,105.614 417.961,99.6142 419.5,93.5C 421.199,93.3398 422.866,93.5065 424.5,94C 420.743,105.613 416.409,116.946 411.5,128C 409.323,129.202 406.989,129.702 404.5,129.5C 404.5,128.167 404.5,126.833 404.5,125.5C 409.111,125.556 411.444,123.223 411.5,118.5C 409.229,110.021 406.562,101.687 403.5,93.5 Z"/></g>
<g><path style="opacity:1" fill="#2c2d30" d="M 434.5,93.5 C 446.059,93.2284 451.225,98.895 450,110.5C 446.706,118.897 440.872,121.397 432.5,118C 427.798,113.078 426.298,107.245 428,100.5C 429.694,97.6424 431.861,95.309 434.5,93.5 Z"/></g>
<g><path style="opacity:1" fill="#27282b" d="M 455.5,93.5 C 456.833,93.5 458.167,93.5 459.5,93.5C 459.334,99.5092 459.501,105.509 460,111.5C 460.18,114.679 461.846,116.012 465,115.5C 467.704,115.815 469.704,114.815 471,112.5C 471.5,106.175 471.666,99.8421 471.5,93.5C 472.833,93.5 474.167,93.5 475.5,93.5C 475.5,102.167 475.5,110.833 475.5,119.5C 474.167,119.5 472.833,119.5 471.5,119.5C 471.649,118.448 471.483,117.448 471,116.5C 465.204,121.032 460.204,120.365 456,114.5C 455.5,107.508 455.334,100.508 455.5,93.5 Z"/></g>
<g><path style="opacity:1" fill="#2a2b2e" d="M 500.5,93.5 C 514.456,94.037 518.956,101.037 514,114.5C 510.562,119.081 506.062,120.581 500.5,119C 497.667,117.5 495.5,115.333 494,112.5C 491.564,104.313 493.731,97.98 500.5,93.5 Z"/></g>
<g><path style="opacity:1" fill="#2c2d30" d="M 612.5,102.5 C 612.5,104.167 612.5,105.833 612.5,107.5C 606.833,107.5 601.167,107.5 595.5,107.5C 595.263,108.791 595.596,109.791 596.5,110.5C 596.859,112.371 597.859,113.871 599.5,115C 603.591,116.227 607.091,115.394 610,112.5C 610.833,113.333 611.667,114.167 612.5,115C 606.475,120.781 600.309,120.948 594,115.5C 589.498,106.909 590.998,99.7419 598.5,94C 606.234,92.026 610.901,94.8593 612.5,102.5 Z"/></g>
<g><path style="opacity:1" fill="#313235" d="M 635.5,93.5 C 643.293,92.0443 647.96,95.0443 649.5,102.5C 648.167,102.5 646.833,102.5 645.5,102.5C 645.703,100.61 645.037,99.1096 643.5,98C 639.726,96.8175 636.559,97.6508 634,100.5C 631.575,115.608 636.742,119.274 649.5,111.5C 647.38,118.398 642.713,120.898 635.5,119C 629.03,114.874 626.863,109.041 629,101.5C 630.305,98.0386 632.471,95.372 635.5,93.5 Z"/></g>
<g><path style="opacity:1" fill="#2a2b2e" d="M 661.5,93.5 C 675.456,94.037 679.956,101.037 675,114.5C 671.562,119.081 667.062,120.581 661.5,119C 658.667,117.5 656.5,115.333 655,112.5C 652.564,104.313 654.731,97.98 661.5,93.5 Z"/></g>
<g><path style="opacity:1" fill="#222326" d="M 682.5,93.5 C 683.833,93.5 685.167,93.5 686.5,93.5C 686.281,94.675 686.614,95.675 687.5,96.5C 691.93,92.6464 696.43,92.6464 701,96.5C 702.432,104.054 702.932,111.721 702.5,119.5C 701.167,119.5 699.833,119.5 698.5,119.5C 698.666,112.825 698.5,106.158 698,99.5C 694.057,96.6342 690.39,96.9676 687,100.5C 686.5,106.825 686.334,113.158 686.5,119.5C 685.167,119.5 683.833,119.5 682.5,119.5C 682.5,110.833 682.5,102.167 682.5,93.5 Z"/></g>
<g><path style="opacity:1" fill="#2d2e30" d="M 714.5,93.5 C 718.747,93.1778 722.747,94.0111 726.5,96C 728.016,97.897 728.683,100.064 728.5,102.5C 726.022,101.805 724.022,100.305 722.5,98C 715.581,96.2555 712.248,98.9222 712.5,106C 711.801,113.639 715.135,116.639 722.5,115C 723.755,112.54 725.755,111.373 728.5,111.5C 728.44,116.061 726.107,118.561 721.5,119C 715.507,120.339 711.34,118.172 709,112.5C 708.333,108.5 708.333,104.5 709,100.5C 709.967,97.3794 711.8,95.046 714.5,93.5 Z"/></g>
<g><path style="opacity:1" fill="#2a2b2e" d="M 754.5,104.5 C 754.5,105.5 754.5,106.5 754.5,107.5C 748.642,107.178 742.975,107.511 737.5,108.5C 738.954,115.05 742.954,117.216 749.5,115C 750.333,114.167 751.167,113.333 752,112.5C 755.078,114.868 754.578,116.701 750.5,118C 744.384,120.796 739.218,119.63 735,114.5C 733.524,109.924 733.19,105.257 734,100.5C 738.341,93.146 744.174,91.646 751.5,96C 753.497,98.4916 754.497,101.325 754.5,104.5 Z"/></g>
<g><path style="opacity:1" fill="#303134" d="M 759.5,93.5 C 760.833,93.5 762.167,93.5 763.5,93.5C 763.351,94.552 763.517,95.552 764,96.5C 769.862,92.2521 775.195,92.9188 780,98.5C 782.752,105.77 781.585,112.27 776.5,118C 772.518,120.144 768.685,119.978 765,117.5C 764.501,121.486 764.334,125.486 764.5,129.5C 762.833,129.5 761.167,129.5 759.5,129.5C 759.5,117.5 759.5,105.5 759.5,93.5 Z"/></g>
<g><path style="opacity:1" fill="#2c2d30" d="M 820.5,93.5 C 832.059,93.2284 837.225,98.895 836,110.5C 832.706,118.897 826.872,121.397 818.5,118C 813.798,113.078 812.298,107.245 814,100.5C 815.694,97.6424 817.861,95.309 820.5,93.5 Z"/></g>
<g><path style="opacity:1" fill="#2c2d30" d="M 890.5,102.5 C 890.5,104.167 890.5,105.833 890.5,107.5C 884.833,107.5 879.167,107.5 873.5,107.5C 873.263,108.791 873.596,109.791 874.5,110.5C 874.859,112.371 875.859,113.871 877.5,115C 881.591,116.227 885.091,115.394 888,112.5C 888.833,113.333 889.667,114.167 890.5,115C 884.475,120.781 878.309,120.948 872,115.5C 867.498,106.909 868.998,99.7419 876.5,94C 884.234,92.026 888.901,94.8593 890.5,102.5 Z"/></g>
<g><path style="opacity:1" fill="#2c2d30" d="M 927.5,102.5 C 927.5,104.167 927.5,105.833 927.5,107.5C 921.833,107.5 916.167,107.5 910.5,107.5C 910.263,108.791 910.596,109.791 911.5,110.5C 911.859,112.371 912.859,113.871 914.5,115C 918.591,116.227 922.091,115.394 925,112.5C 925.833,113.333 926.667,114.167 927.5,115C 921.475,120.781 915.309,120.948 909,115.5C 904.498,106.909 905.998,99.7419 913.5,94C 921.234,92.026 925.901,94.8593 927.5,102.5 Z"/></g>
<g><path style="opacity:1" fill="#2d2e30" d="M 938.5,93.5 C 942.747,93.1778 946.747,94.0111 950.5,96C 952.016,97.897 952.683,100.064 952.5,102.5C 950.022,101.805 948.022,100.305 946.5,98C 939.581,96.2555 936.248,98.9222 936.5,106C 935.801,113.639 939.135,116.639 946.5,115C 947.755,112.54 949.755,111.373 952.5,111.5C 952.44,116.061 950.107,118.561 945.5,119C 939.507,120.339 935.34,118.172 933,112.5C 932.333,108.5 932.333,104.5 933,100.5C 933.967,97.3794 935.8,95.046 938.5,93.5 Z"/></g>
<g><path style="opacity:1" fill="#252629" d="M 974.5,93.5 C 976.451,93.2267 977.951,93.8934 979,95.5C 981.228,93.8866 983.728,93.22 986.5,93.5C 986.5,94.8333 986.5,96.1667 986.5,97.5C 983.348,96.9586 980.848,97.9586 979,100.5C 978.5,106.825 978.334,113.158 978.5,119.5C 977.167,119.5 975.833,119.5 974.5,119.5C 974.5,110.833 974.5,102.167 974.5,93.5 Z"/></g>
<g><path style="opacity:1" fill="#303134" d="M 995.5,93.5 C 1009.33,93.4599 1014.16,100.127 1010,113.5C 1005.03,120.24 999.034,121.24 992,116.5C 986.476,107.696 987.642,100.029 995.5,93.5 Z"/></g>
<g><path style="opacity:1" fill="#2d2e31" d="M 1017.5,93.5 C 1018.83,93.5 1020.17,93.5 1021.5,93.5C 1021.35,94.552 1021.52,95.552 1022,96.5C 1026.63,92.6015 1031.3,92.6015 1036,96.5C 1037.43,104.054 1037.93,111.721 1037.5,119.5C 1035.83,119.5 1034.17,119.5 1032.5,119.5C 1032.67,112.492 1032.5,105.492 1032,98.5C 1028.16,96.7621 1024.82,97.4288 1022,100.5C 1021.5,106.825 1021.33,113.158 1021.5,119.5C 1020.17,119.5 1018.83,119.5 1017.5,119.5C 1017.5,110.833 1017.5,102.167 1017.5,93.5 Z"/></g>
<g><path style="opacity:1" fill="#1f2123" d="M 1044.5,93.5 C 1045.83,93.5 1047.17,93.5 1048.5,93.5C 1048.5,102.167 1048.5,110.833 1048.5,119.5C 1047.17,119.5 1045.83,119.5 1044.5,119.5C 1044.5,110.833 1044.5,102.167 1044.5,93.5 Z"/></g>
<g><path style="opacity:1" fill="#2b2c2f" d="M 1061.5,93.5 C 1069.23,92.0202 1073.9,95.0202 1075.5,102.5C 1072.25,102.707 1070.25,101.207 1069.5,98C 1061.94,95.7219 1058.27,98.5552 1058.5,106.5C 1058.27,114.445 1061.94,117.278 1069.5,115C 1070.52,113.444 1071.85,112.278 1073.5,111.5C 1074.17,111.833 1074.83,112.167 1075.5,112.5C 1071.92,119.194 1066.59,121.028 1059.5,118C 1054.44,112.242 1053.27,105.742 1056,98.5C 1057.73,96.5981 1059.56,94.9314 1061.5,93.5 Z"/></g>
<g><path style="opacity:1" fill="#2b2c2f" d="M 1090.5,93.5 C 1092.14,93.2865 1093.64,93.6198 1095,94.5C 1096.06,100.729 1097.72,106.729 1100,112.5C 1101.35,106.416 1103.02,100.416 1105,94.5C 1106.36,93.6198 1107.86,93.2865 1109.5,93.5C 1111.17,99.8592 1113.01,106.193 1115,112.5C 1116.98,106.265 1118.48,99.9318 1119.5,93.5C 1120.83,93.5 1122.17,93.5 1123.5,93.5C 1121.48,102.189 1119.48,110.856 1117.5,119.5C 1116.02,119.762 1114.69,119.429 1113.5,118.5C 1111.42,112.418 1109.25,106.418 1107,100.5C 1104.66,106.684 1102.83,113.018 1101.5,119.5C 1100.17,119.5 1098.83,119.5 1097.5,119.5C 1094.92,110.93 1092.58,102.263 1090.5,93.5 Z"/></g>
<g><path style="opacity:1" fill="#2e2f32" d="M 1134.5,93.5 C 1139.45,92.6276 1143.61,93.9609 1147,97.5C 1148.43,104.719 1148.93,112.053 1148.5,119.5C 1146.17,119.753 1144.17,119.086 1142.5,117.5C 1132.45,121.619 1127.95,118.286 1129,107.5C 1133.17,103.973 1138,102.64 1143.5,103.5C 1143.74,101.533 1143.41,99.6995 1142.5,98C 1139.83,97.3333 1137.17,97.3333 1134.5,98C 1132.92,100.395 1130.92,100.895 1128.5,99.5C 1130.21,97.1182 1132.21,95.1182 1134.5,93.5 Z"/></g>
<g><path style="opacity:1" fill="#2e2f32" d="M 1159.5,93.5 C 1164.72,92.7024 1169.22,94.0358 1173,97.5C 1173.49,98.7932 1173.66,100.127 1173.5,101.5C 1170.47,100.001 1167.3,98.6673 1164,97.5C 1159.74,97.3766 1158.57,99.21 1160.5,103C 1165.59,104.026 1170.09,106.193 1174,109.5C 1175.18,113.26 1174.01,116.093 1170.5,118C 1165.31,120.349 1160.48,119.849 1156,116.5C 1154.99,114.975 1154.49,113.308 1154.5,111.5C 1157.24,111.373 1159.24,112.54 1160.5,115C 1163.43,115.777 1166.26,115.61 1169,114.5C 1169.82,112.299 1169.32,110.466 1167.5,109C 1164.12,108.125 1160.78,107.125 1157.5,106C 1155.08,103.997 1154.24,101.497 1155,98.5C 1156.71,96.9625 1158.21,95.2959 1159.5,93.5 Z"/></g>
<g><path style="opacity:1" fill="#2c2d30" d="M 1215.5,102.5 C 1215.5,104.167 1215.5,105.833 1215.5,107.5C 1209.83,107.5 1204.17,107.5 1198.5,107.5C 1198.26,108.791 1198.6,109.791 1199.5,110.5C 1199.86,112.371 1200.86,113.871 1202.5,115C 1206.59,116.227 1210.09,115.394 1213,112.5C 1213.83,113.333 1214.67,114.167 1215.5,115C 1209.48,120.781 1203.31,120.948 1197,115.5C 1192.5,106.909 1194,99.7419 1201.5,94C 1209.23,92.026 1213.9,94.8593 1215.5,102.5 Z"/></g>
<g><path style="opacity:1" fill="#252629" d="M 1233.5,93.5 C 1235.45,93.2267 1236.95,93.8934 1238,95.5C 1240.23,93.8866 1242.73,93.22 1245.5,93.5C 1245.5,94.8333 1245.5,96.1667 1245.5,97.5C 1242.35,96.9586 1239.85,97.9586 1238,100.5C 1237.5,106.825 1237.33,113.158 1237.5,119.5C 1236.17,119.5 1234.83,119.5 1233.5,119.5C 1233.5,110.833 1233.5,102.167 1233.5,93.5 Z"/></g>
<g><path style="opacity:1" fill="#2d2e31" d="M 1268.5,101.5 C 1268.5,103.5 1268.5,105.5 1268.5,107.5C 1262.83,107.5 1257.17,107.5 1251.5,107.5C 1251.26,108.791 1251.6,109.791 1252.5,110.5C 1254.62,115.261 1258.28,116.761 1263.5,115C 1268.86,113.009 1269.53,114.009 1265.5,118C 1252.27,121.445 1246.44,116.278 1248,102.5C 1252.8,92.1473 1259.47,90.814 1268,98.5C 1268.48,99.448 1268.65,100.448 1268.5,101.5 Z"/></g>
<g><path style="opacity:1" fill="#2a2b2e" d="M 1280.5,93.5 C 1284.46,93.0889 1288.13,93.9222 1291.5,96C 1293.45,97.7342 1294.45,99.9009 1294.5,102.5C 1293.02,102.762 1291.69,102.429 1290.5,101.5C 1288.17,97.7482 1284.84,96.5815 1280.5,98C 1277.13,102.819 1276.63,107.986 1279,113.5C 1283.3,116.457 1287.13,115.957 1290.5,112C 1294.83,110.779 1295.66,111.946 1293,115.5C 1281.48,122.656 1274.98,119.489 1273.5,106C 1273.12,100.251 1275.46,96.0839 1280.5,93.5 Z"/></g>
<g><path style="opacity:1" fill="#2a2b2e" d="M 1297.5,93.5 C 1299.14,93.2865 1300.64,93.6198 1302,94.5C 1303.8,100.242 1305.8,105.909 1308,111.5C 1309.53,105.735 1311.37,100.068 1313.5,94.5C 1315.07,93.3691 1316.74,93.2025 1318.5,94C 1314.41,104.778 1310.41,115.611 1306.5,126.5C 1304.42,128.986 1301.76,129.986 1298.5,129.5C 1298.5,128.167 1298.5,126.833 1298.5,125.5C 1303.33,125.498 1305.67,122.998 1305.5,118C 1302.73,109.848 1300.06,101.682 1297.5,93.5 Z"/></g>
<g><path style="opacity:1" fill="#2d2e30" d="M 1327.5,93.5 C 1331.75,93.1778 1335.75,94.0111 1339.5,96C 1341.02,97.897 1341.68,100.064 1341.5,102.5C 1339.02,101.805 1337.02,100.305 1335.5,98C 1328.58,96.2555 1325.25,98.9222 1325.5,106C 1324.8,113.639 1328.13,116.639 1335.5,115C 1336.76,112.54 1338.76,111.373 1341.5,111.5C 1341.44,116.061 1339.11,118.561 1334.5,119C 1328.51,120.339 1324.34,118.172 1322,112.5C 1321.33,108.5 1321.33,104.5 1322,100.5C 1322.97,97.3794 1324.8,95.046 1327.5,93.5 Z"/></g>
<g><path style="opacity:1" fill="#1f2123" d="M 1359.5,93.5 C 1360.83,93.5 1362.17,93.5 1363.5,93.5C 1363.5,102.167 1363.5,110.833 1363.5,119.5C 1362.17,119.5 1360.83,119.5 1359.5,119.5C 1359.5,110.833 1359.5,102.167 1359.5,93.5 Z"/></g>
<g><path style="opacity:1" fill="#222326" d="M 1370.5,93.5 C 1371.83,93.5 1373.17,93.5 1374.5,93.5C 1374.28,94.675 1374.61,95.675 1375.5,96.5C 1379.93,92.6464 1384.43,92.6464 1389,96.5C 1390.43,104.054 1390.93,111.721 1390.5,119.5C 1389.17,119.5 1387.83,119.5 1386.5,119.5C 1386.67,112.825 1386.5,106.158 1386,99.5C 1382.06,96.6342 1378.39,96.9676 1375,100.5C 1374.5,106.825 1374.33,113.158 1374.5,119.5C 1373.17,119.5 1371.83,119.5 1370.5,119.5C 1370.5,110.833 1370.5,102.167 1370.5,93.5 Z"/></g>
<g><path style="opacity:1" fill="#292a2d" d="M 1402.5,93.5 C 1406.52,92.8999 1410.02,93.8999 1413,96.5C 1413.48,95.552 1413.65,94.552 1413.5,93.5C 1414.83,93.5 1416.17,93.5 1417.5,93.5C 1417.67,103.172 1417.5,112.839 1417,122.5C 1415.03,127.327 1411.36,129.66 1406,129.5C 1402.41,129.453 1399.57,127.953 1397.5,125C 1398.99,121.876 1400.65,121.876 1402.5,125C 1409.97,127.508 1413.14,125.008 1412,117.5C 1406.28,120.884 1401.62,119.884 1398,114.5C 1396.51,109.589 1396.17,104.589 1397,99.5C 1398.36,96.9774 1400.19,94.9774 1402.5,93.5 Z"/></g>
<g><path style="opacity:1" fill="#f7f7f7" d="M 115.5,97.5 C 125.111,96.6806 128.611,101.014 126,110.5C 125.727,112.329 124.893,113.829 123.5,115C 120.833,115.667 118.167,115.667 115.5,115C 111.533,109.168 111.533,103.334 115.5,97.5 Z"/></g>
<g><path style="opacity:1" fill="#f7f7f7" d="M 295.5,97.5 C 301.826,95.8411 304.826,98.1744 304.5,104.5C 300.5,104.5 296.5,104.5 292.5,104.5C 292.688,101.794 293.688,99.4605 295.5,97.5 Z"/></g>
<g><path style="opacity:1" fill="#fafafa" d="M 375.5,97.5 C 381.188,96.531 384.188,98.8643 384.5,104.5C 380.5,104.5 376.5,104.5 372.5,104.5C 372.15,101.547 373.15,99.2133 375.5,97.5 Z"/></g>
<g><path style="opacity:1" fill="#f7f7f7" d="M 435.5,97.5 C 437.857,97.3367 440.19,97.5034 442.5,98C 443.701,98.9025 444.535,100.069 445,101.5C 445.667,104.833 445.667,108.167 445,111.5C 444.535,112.931 443.701,114.097 442.5,115C 437.915,116.518 434.415,115.351 432,111.5C 430.495,105.968 431.662,101.301 435.5,97.5 Z"/></g>
<g><path style="opacity:1" fill="#f7f7f7" d="M 500.5,97.5 C 510.111,96.6806 513.611,101.014 511,110.5C 510.727,112.329 509.893,113.829 508.5,115C 505.833,115.667 503.167,115.667 500.5,115C 496.533,109.168 496.533,103.334 500.5,97.5 Z"/></g>
<g><path style="opacity:1" fill="#949596" d="M 533.5,96.5 C 532.081,97.4511 530.415,97.7845 528.5,97.5C 528.825,105.019 528.492,112.352 527.5,119.5C 527.5,111.833 527.5,104.167 527.5,96.5C 529.5,96.5 531.5,96.5 533.5,96.5 Z"/></g>
<g><path style="opacity:1" fill="#fafafa" d="M 599.5,97.5 C 605.188,96.531 608.188,98.8643 608.5,104.5C 604.5,104.5 600.5,104.5 596.5,104.5C 596.15,101.547 597.15,99.2133 599.5,97.5 Z"/></g>
<g><path style="opacity:1" fill="#f7f7f7" d="M 661.5,97.5 C 671.111,96.6806 674.611,101.014 672,110.5C 671.727,112.329 670.893,113.829 669.5,115C 666.833,115.667 664.167,115.667 661.5,115C 657.533,109.168 657.533,103.334 661.5,97.5 Z"/></g>
<g><path style="opacity:1" fill="#f3f3f3" d="M 740.5,97.5 C 746.643,95.9899 749.976,98.3233 750.5,104.5C 746.167,104.5 741.833,104.5 737.5,104.5C 738.011,101.978 739.011,99.6451 740.5,97.5 Z"/></g>
<g><path style="opacity:1" fill="#fbfbfb" d="M 766.5,97.5 C 770.287,96.8144 773.454,97.8144 776,100.5C 776.667,104.167 776.667,107.833 776,111.5C 773.947,115.292 770.781,116.458 766.5,115C 766,114.5 765.5,114 765,113.5C 763.946,107.886 764.446,102.552 766.5,97.5 Z"/></g>
<g><path style="opacity:1" fill="#f7f7f7" d="M 821.5,97.5 C 823.857,97.3367 826.19,97.5034 828.5,98C 829.701,98.9025 830.535,100.069 831,101.5C 831.667,104.833 831.667,108.167 831,111.5C 830.535,112.931 829.701,114.097 828.5,115C 823.915,116.518 820.415,115.351 818,111.5C 816.495,105.968 817.662,101.301 821.5,97.5 Z"/></g>
<g><path style="opacity:1" fill="#949596" d="M 840.5,93.5 C 840.5,94.5 840.5,95.5 840.5,96.5C 841.833,96.5 843.167,96.5 844.5,96.5C 844.5,104.167 844.5,111.833 844.5,119.5C 843.508,112.352 843.175,105.019 843.5,97.5C 842.167,97.5 840.833,97.5 839.5,97.5C 839.232,95.901 839.566,94.5676 840.5,93.5 Z"/></g>
<g><path style="opacity:1" fill="#fafafa" d="M 877.5,97.5 C 883.188,96.531 886.188,98.8643 886.5,104.5C 882.5,104.5 878.5,104.5 874.5,104.5C 874.15,101.547 875.15,99.2133 877.5,97.5 Z"/></g>
<g><path style="opacity:1" fill="#fafafa" d="M 914.5,97.5 C 920.188,96.531 923.188,98.8643 923.5,104.5C 919.5,104.5 915.5,104.5 911.5,104.5C 911.15,101.547 912.15,99.2133 914.5,97.5 Z"/></g>
<g><path style="opacity:1" fill="#f9f9f9" d="M 996.5,97.5 C 1005.59,97.1059 1009.09,101.439 1007,110.5C 1004.93,115.143 1001.43,116.643 996.5,115C 995.299,114.097 994.465,112.931 994,111.5C 992.718,106.295 993.551,101.628 996.5,97.5 Z"/></g>
<g><path style="opacity:1" fill="#fafafa" d="M 1202.5,97.5 C 1208.19,96.531 1211.19,98.8643 1211.5,104.5C 1207.5,104.5 1203.5,104.5 1199.5,104.5C 1199.15,101.547 1200.15,99.2133 1202.5,97.5 Z"/></g>
<g><path style="opacity:1" fill="#f7f7f7" d="M 1255.5,97.5 C 1261.77,95.7973 1264.77,98.1306 1264.5,104.5C 1260.5,104.5 1256.5,104.5 1252.5,104.5C 1252.15,101.547 1253.15,99.2133 1255.5,97.5 Z"/></g>
<g><path style="opacity:1" fill="#f4f4f4" d="M 1403.5,97.5 C 1407.29,96.8144 1410.45,97.8144 1413,100.5C 1413.67,104.5 1413.67,108.5 1413,112.5C 1404.98,118.051 1400.81,115.884 1400.5,106C 1400.25,102.677 1401.25,99.8432 1403.5,97.5 Z"/></g>
<g><path style="opacity:1" fill="#67686a" d="M 97.5,104.5 C 91.8333,104.5 86.1667,104.5 80.5,104.5C 80.8205,109.695 80.4872,114.695 79.5,119.5C 79.5,114.167 79.5,108.833 79.5,103.5C 85.69,103.177 91.69,103.51 97.5,104.5 Z"/></g>
<g><path style="opacity:1" fill="#f6f6f6" d="M 191.5,106.5 C 194.167,106.5 196.833,106.5 199.5,106.5C 199.864,114.307 196.364,116.973 189,114.5C 187.837,111.029 188.67,108.362 191.5,106.5 Z"/></g>
<g><path style="opacity:1" fill="#eeeeee" d="M 253.5,106.5 C 256.5,106.5 259.5,106.5 262.5,106.5C 263.037,113.745 259.704,116.578 252.5,115C 249.815,111.883 250.148,109.05 253.5,106.5 Z"/></g>
<g><path style="opacity:1" fill="#f6f6f6" d="M 333.5,106.5 C 336.167,106.5 338.833,106.5 341.5,106.5C 341.864,114.307 338.364,116.973 331,114.5C 329.837,111.029 330.67,108.362 333.5,106.5 Z"/></g>
<g><path style="opacity:1" fill="#f4f4f4" d="M 1135.5,106.5 C 1138.17,106.5 1140.83,106.5 1143.5,106.5C 1144.99,112.051 1142.99,115.051 1137.5,115.5C 1133.01,115.167 1131.51,112.833 1133,108.5C 1133.99,107.934 1134.83,107.267 1135.5,106.5 Z"/></g>
<g><path style="opacity:1" fill="#919293" d="M 388.5,102.5 C 389.461,104.265 389.795,106.265 389.5,108.5C 383.402,107.883 377.735,108.55 372.5,110.5C 371.596,109.791 371.263,108.791 371.5,107.5C 377.167,107.5 382.833,107.5 388.5,107.5C 388.5,105.833 388.5,104.167 388.5,102.5 Z"/></g>
<g><path style="opacity:1" fill="#919293" d="M 612.5,102.5 C 613.461,104.265 613.795,106.265 613.5,108.5C 607.402,107.883 601.735,108.55 596.5,110.5C 595.596,109.791 595.263,108.791 595.5,107.5C 601.167,107.5 606.833,107.5 612.5,107.5C 612.5,105.833 612.5,104.167 612.5,102.5 Z"/></g>
<g><path style="opacity:1" fill="#969798" d="M 754.5,104.5 C 755.434,105.568 755.768,106.901 755.5,108.5C 749.5,108.5 743.5,108.5 737.5,108.5C 742.975,107.511 748.642,107.178 754.5,107.5C 754.5,106.5 754.5,105.5 754.5,104.5 Z"/></g>
<g><path style="opacity:1" fill="#919293" d="M 890.5,102.5 C 891.461,104.265 891.795,106.265 891.5,108.5C 885.402,107.883 879.735,108.55 874.5,110.5C 873.596,109.791 873.263,108.791 873.5,107.5C 879.167,107.5 884.833,107.5 890.5,107.5C 890.5,105.833 890.5,104.167 890.5,102.5 Z"/></g>
<g><path style="opacity:1" fill="#919293" d="M 927.5,102.5 C 928.461,104.265 928.795,106.265 928.5,108.5C 922.402,107.883 916.735,108.55 911.5,110.5C 910.596,109.791 910.263,108.791 910.5,107.5C 916.167,107.5 921.833,107.5 927.5,107.5C 927.5,105.833 927.5,104.167 927.5,102.5 Z"/></g>
<g><path style="opacity:1" fill="#919293" d="M 1215.5,102.5 C 1216.46,104.265 1216.79,106.265 1216.5,108.5C 1210.4,107.883 1204.74,108.55 1199.5,110.5C 1198.6,109.791 1198.26,108.791 1198.5,107.5C 1204.17,107.5 1209.83,107.5 1215.5,107.5C 1215.5,105.833 1215.5,104.167 1215.5,102.5 Z"/></g>
<g><path style="opacity:1" fill="#848587" d="M 1268.5,101.5 C 1269.47,103.607 1269.8,105.941 1269.5,108.5C 1263.4,107.883 1257.74,108.55 1252.5,110.5C 1251.6,109.791 1251.26,108.791 1251.5,107.5C 1257.17,107.5 1262.83,107.5 1268.5,107.5C 1268.5,105.5 1268.5,103.5 1268.5,101.5 Z"/></g>
<g><path style="opacity:1" fill="#313235" d="M 1429.5,114.5 C 1430.83,114.5 1432.17,114.5 1433.5,114.5C 1433.5,116.167 1433.5,117.833 1433.5,119.5C 1432.17,119.5 1430.83,119.5 1429.5,119.5C 1429.5,117.833 1429.5,116.167 1429.5,114.5 Z"/></g>
<g><path style="opacity:1" fill="#303133" d="M 77.5,153.5 C 85.8982,152.072 89.3982,155.406 88,163.5C 87.1667,164.333 86.3333,165.167 85.5,166C 90.3977,169.522 90.731,173.522 86.5,178C 79.693,181.347 75.3597,179.513 73.5,172.5C 75.8244,172.662 77.4911,173.828 78.5,176C 85.0771,177.591 87.2438,175.091 85,168.5C 82.9592,167.577 80.7925,167.244 78.5,167.5C 78.5,166.5 78.5,165.5 78.5,164.5C 84.487,165.023 86.487,162.523 84.5,157C 82.5,156.333 80.5,156.333 78.5,157C 77.4911,159.172 75.8244,160.338 73.5,160.5C 73.9613,157.697 75.2947,155.363 77.5,153.5 Z"/></g>
<g><path style="opacity:1" fill="#353639" d="M 98.5,153.5 C 102.909,152.618 106.409,153.952 109,157.5C 109.667,163.167 109.667,168.833 109,174.5C 106.087,179.689 101.92,180.856 96.5,178C 93.6378,172.168 92.8045,166.002 94,159.5C 94.8041,156.854 96.3041,154.854 98.5,153.5 Z"/></g>
<g><path style="opacity:1" fill="#fbfbfb" d="M 99.5,156.5 C 102.044,156.104 104.211,156.771 106,158.5C 106.667,163.5 106.667,168.5 106,173.5C 103.822,177.065 101.156,177.399 98,174.5C 97.3333,169.167 97.3333,163.833 98,158.5C 98.7172,157.956 99.2172,157.289 99.5,156.5 Z"/></g>
<g><path style="opacity:1" fill="#222326" d="M 123.5,160.5 C 125.124,160.36 126.29,161.027 127,162.5C 128.444,160.845 130.278,160.178 132.5,160.5C 132.5,161.5 132.5,162.5 132.5,163.5C 130.278,163.178 128.444,163.845 127,165.5C 126.501,170.155 126.334,174.821 126.5,179.5C 125.5,179.5 124.5,179.5 123.5,179.5C 123.5,173.167 123.5,166.833 123.5,160.5 Z"/></g>
<g><path style="opacity:1" fill="#303134" d="M 139.5,160.5 C 147.519,159.853 151.186,163.519 150.5,171.5C 146.116,171.174 141.783,171.508 137.5,172.5C 139.271,176.331 142.271,177.498 146.5,176C 147.731,174.033 148.731,174.199 149.5,176.5C 145.915,179.845 141.915,180.345 137.5,178C 134.64,174.319 133.807,170.152 135,165.5C 136.025,163.313 137.525,161.646 139.5,160.5 Z"/></g>
<g><path style="opacity:1" fill="#323335" d="M 157.5,160.5 C 162.583,159.386 166.249,161.053 168.5,165.5C 168,165.833 167.5,166.167 167,166.5C 165.217,165.047 163.217,164.047 161,163.5C 159.029,163.281 157.862,164.115 157.5,166C 160.736,168.201 164.236,170.034 168,171.5C 168.315,178.819 164.815,181.319 157.5,179C 154.433,177.739 153.6,175.906 155,173.5C 156.853,175.187 159.019,176.187 161.5,176.5C 163.623,176.78 164.956,175.947 165.5,174C 162.132,172.096 158.632,170.263 155,168.5C 154.018,165.225 154.851,162.559 157.5,160.5 Z"/></g>
<g><path style="opacity:1" fill="#2d2e31" d="M 177.5,178.5 C 177.44,177.957 177.107,177.624 176.5,177.5C 175.516,180.428 175.183,183.428 175.5,186.5C 174.5,186.5 173.5,186.5 172.5,186.5C 172.5,177.833 172.5,169.167 172.5,160.5C 174.124,160.36 175.29,161.027 176,162.5C 180.552,159.542 184.552,160.209 188,164.5C 188.854,168.625 188.52,172.625 187,176.5C 184.152,179.387 180.985,180.054 177.5,178.5 Z"/></g>
<g><path style="opacity:1" fill="#343437" d="M 196.5,160.5 C 206.008,159.84 210.175,164.173 209,173.5C 207.203,177.606 204.037,179.606 199.5,179.5C 194.492,178.198 191.826,174.865 191.5,169.5C 191.904,165.771 193.571,162.771 196.5,160.5 Z"/></g>
<g><path style="opacity:1" fill="#343537" d="M 213.5,160.5 C 215.124,160.36 216.29,161.027 217,162.5C 220.262,159.923 223.595,159.923 227,162.5C 228.404,168.044 228.904,173.71 228.5,179.5C 227.167,179.5 225.833,179.5 224.5,179.5C 224.666,174.489 224.499,169.489 224,164.5C 221.408,163.018 219.075,163.352 217,165.5C 216.501,170.155 216.334,174.821 216.5,179.5C 215.5,179.5 214.5,179.5 213.5,179.5C 213.5,173.167 213.5,166.833 213.5,160.5 Z"/></g>
<g><path style="opacity:1" fill="#323335" d="M 236.5,160.5 C 241.583,159.386 245.249,161.053 247.5,165.5C 247,165.833 246.5,166.167 246,166.5C 244.217,165.047 242.217,164.047 240,163.5C 238.029,163.281 236.862,164.115 236.5,166C 239.736,168.201 243.236,170.034 247,171.5C 247.315,178.819 243.815,181.319 236.5,179C 233.433,177.739 232.6,175.906 234,173.5C 235.853,175.187 238.019,176.187 240.5,176.5C 242.623,176.78 243.956,175.947 244.5,174C 241.132,172.096 237.632,170.263 234,168.5C 233.018,165.225 233.851,162.559 236.5,160.5 Z"/></g>
<g><path style="opacity:1" fill="#2b2c2f" d="M 266.5,166.5 C 266.5,167.833 266.5,169.167 266.5,170.5C 262.298,170.183 258.298,170.517 254.5,171.5C 254.297,173.39 254.963,174.89 256.5,176C 259.669,176.978 262.503,176.478 265,174.5C 265.5,175 266,175.5 266.5,176C 261.443,180.824 256.609,180.657 252,175.5C 251.333,171.833 251.333,168.167 252,164.5C 255.07,160.293 258.903,159.46 263.5,162C 265.141,163.129 266.141,164.629 266.5,166.5 Z"/></g>
<g><path style="opacity:1" fill="#2d2e31" d="M 274.5,160.5 C 277.32,160.248 279.986,160.748 282.5,162C 284.037,163.11 284.703,164.61 284.5,166.5C 282.331,165.219 279.997,164.219 277.5,163.5C 273.338,163.649 272.672,165.149 275.5,168C 278.696,168.396 281.53,169.562 284,171.5C 284.345,178.785 280.845,181.285 273.5,179C 271.393,177.736 270.393,175.903 270.5,173.5C 272.669,174.781 275.003,175.781 277.5,176.5C 281.166,176.631 282.166,175.131 280.5,172C 276.81,171.464 273.644,169.964 271,167.5C 270.176,164.16 271.343,161.827 274.5,160.5 Z"/></g>
<g><path style="opacity:1" fill="#f1f1f1" d="M 139.5,163.5 C 141.527,163.338 143.527,163.505 145.5,164C 146.38,165.356 146.714,166.856 146.5,168.5C 143.5,168.5 140.5,168.5 137.5,168.5C 137.392,166.486 138.058,164.82 139.5,163.5 Z"/></g>
<g><path style="opacity:1" fill="#efefef" d="M 177.5,163.5 C 184.509,163.129 187.009,166.462 185,173.5C 182.472,177.085 179.472,177.418 176,174.5C 175.013,170.525 175.513,166.859 177.5,163.5 Z"/></g>
<g><path style="opacity:1" fill="#f7f7f7" d="M 197.5,163.5 C 200.365,163.055 202.865,163.722 205,165.5C 206.023,169.317 205.523,172.817 203.5,176C 200.653,176.944 198.153,176.444 196,174.5C 195.013,170.525 195.513,166.859 197.5,163.5 Z"/></g>
<g><path style="opacity:1" fill="#f8f8f8" d="M 256.5,163.5 C 260.851,162.533 263.185,164.2 263.5,168.5C 260.5,168.5 257.5,168.5 254.5,168.5C 254.392,166.486 255.058,164.82 256.5,163.5 Z"/></g>
<g><path style="opacity:1" fill="#676869" d="M 266.5,166.5 C 267.451,167.919 267.784,169.585 267.5,171.5C 263.167,171.5 258.833,171.5 254.5,171.5C 258.298,170.517 262.298,170.183 266.5,170.5C 266.5,169.167 266.5,167.833 266.5,166.5 Z"/></g>
<g><path style="opacity:1" fill="#87888a" d="M 177.5,178.5 C 176.833,181.167 176.167,183.833 175.5,186.5C 175.183,183.428 175.516,180.428 176.5,177.5C 177.107,177.624 177.44,177.957 177.5,178.5 Z"/></g>
<g><path style="opacity:1" fill="#3868cc" d="M 1401.5,281.5 C 1417.18,280.679 1424.68,288.012 1424,303.5C 1420.34,314.252 1412.84,318.752 1401.5,317C 1388.74,310.719 1385.57,301.219 1392,288.5C 1394.79,285.535 1397.96,283.202 1401.5,281.5 Z"/></g>
<g><path style="opacity:1" fill="#ff9901" d="M 698.5,283.5 C 775.029,278.621 842.195,300.954 900,350.5C 900.667,351.167 900.667,351.833 900,352.5C 840.851,418.617 781.351,484.45 721.5,550C 640.074,586.887 558.407,622.887 476.5,658C 442.747,576.195 446.914,496.362 489,418.5C 536.827,339.652 606.661,294.652 698.5,283.5 Z"/></g>
<g><path style="opacity:1" fill="#212221" d="M 1442.5,286.5 C 1443.5,286.5 1444.5,286.5 1445.5,286.5C 1445.5,290.167 1445.5,293.833 1445.5,297.5C 1450.17,297.5 1454.83,297.5 1459.5,297.5C 1459.5,293.833 1459.5,290.167 1459.5,286.5C 1460.5,286.5 1461.5,286.5 1462.5,286.5C 1462.5,294.833 1462.5,303.167 1462.5,311.5C 1461.5,311.5 1460.5,311.5 1459.5,311.5C 1459.5,307.5 1459.5,303.5 1459.5,299.5C 1454.83,299.5 1450.17,299.5 1445.5,299.5C 1445.5,303.5 1445.5,307.5 1445.5,311.5C 1444.5,311.5 1443.5,311.5 1442.5,311.5C 1442.5,303.167 1442.5,294.833 1442.5,286.5 Z"/></g>
<g><path style="opacity:1" fill="#9a9a9a" d="M 1468.5,285.5 C 1469.83,285.5 1471.17,285.5 1472.5,285.5C 1472.5,287.167 1472.5,288.833 1472.5,290.5C 1471.17,290.5 1469.83,290.5 1468.5,290.5C 1468.5,288.833 1468.5,287.167 1468.5,285.5 Z"/></g>
<g><path style="opacity:1" fill="#212221" d="M 1469.5,286.5 C 1471.46,286.948 1471.8,287.948 1470.5,289.5C 1469.61,288.675 1469.28,287.675 1469.5,286.5 Z"/></g>
<g><path style="opacity:1" fill="#707070" d="M 1502.5,294.5 C 1501.74,292.574 1501.08,289.907 1500.5,286.5C 1499.17,294.833 1499.17,303.167 1500.5,311.5C 1501.17,307.353 1501.83,303.353 1502.5,299.5C 1502.5,303.833 1502.5,308.167 1502.5,312.5C 1501.17,312.5 1499.83,312.5 1498.5,312.5C 1498.5,303.5 1498.5,294.5 1498.5,285.5C 1499.83,285.5 1501.17,285.5 1502.5,285.5C 1502.5,288.5 1502.5,291.5 1502.5,294.5 Z"/></g>
<g><path style="opacity:1" fill="#242424" d="M 1502.5,294.5 C 1505.41,293.431 1508.41,293.264 1511.5,294C 1512.38,294.708 1513.05,295.542 1513.5,296.5C 1513.83,301.544 1513.49,306.544 1512.5,311.5C 1511.83,307.018 1511.17,302.684 1510.5,298.5C 1509.38,295.872 1507.38,295.039 1504.5,296C 1503.18,296.816 1502.51,297.983 1502.5,299.5C 1501.83,303.353 1501.17,307.353 1500.5,311.5C 1499.17,303.167 1499.17,294.833 1500.5,286.5C 1501.08,289.907 1501.74,292.574 1502.5,294.5 Z"/></g>
<g><path style="opacity:1" fill="#808080" d="M 1519.5,285.5 C 1520.83,285.5 1522.17,285.5 1523.5,285.5C 1523.5,294.5 1523.5,303.5 1523.5,312.5C 1522.17,312.5 1520.83,312.5 1519.5,312.5C 1519.5,303.5 1519.5,294.5 1519.5,285.5 Z"/></g>
<g><path style="opacity:1" fill="#212221" d="M 1520.5,286.5 C 1521.82,290.276 1522.49,294.443 1522.5,299C 1522.17,303.167 1521.83,307.333 1521.5,311.5C 1520.5,303.193 1520.17,294.86 1520.5,286.5 Z"/></g>
<g><path style="opacity:1" fill="#909090" d="M 1468.5,292.5 C 1469.83,292.5 1471.17,292.5 1472.5,292.5C 1472.5,299.167 1472.5,305.833 1472.5,312.5C 1471.17,312.5 1469.83,312.5 1468.5,312.5C 1468.5,305.833 1468.5,299.167 1468.5,292.5 Z"/></g>
<g><path style="opacity:1" fill="#212221" d="M 1469.5,293.5 C 1470.82,296.087 1471.48,299.087 1471.5,302.5C 1471.17,305.5 1470.83,308.5 1470.5,311.5C 1469.5,305.537 1469.17,299.537 1469.5,293.5 Z"/></g>
<g><path style="opacity:1" fill="#2e2e2e" d="M 1489.5,294.5 C 1489.43,294.938 1489.6,295.272 1490,295.5C 1490.31,294.692 1490.81,294.025 1491.5,293.5C 1492.5,300.134 1492.83,306.8 1492.5,313.5C 1491.42,317.565 1488.75,319.231 1484.5,318.5C 1480.86,319.263 1478.53,317.93 1477.5,314.5C 1478,314.167 1478.5,313.833 1479,313.5C 1480.78,314.953 1482.78,315.953 1485,316.5C 1488.74,316.095 1490.07,314.095 1489,310.5C 1479.35,312.658 1475.35,308.658 1477,298.5C 1479.89,293.52 1484.05,292.187 1489.5,294.5 Z"/></g>
<g><path style="opacity:1" fill="#969696" d="M 1492.5,313.5 C 1492.83,306.8 1492.5,300.134 1491.5,293.5C 1490.81,294.025 1490.31,294.692 1490,295.5C 1489.6,295.272 1489.43,294.938 1489.5,294.5C 1490.18,292.824 1491.52,292.157 1493.5,292.5C 1493.82,299.687 1493.49,306.687 1492.5,313.5 Z"/></g>
<g><path style="opacity:1" fill="#343434" d="M 1527.5,293.5 C 1528.83,293.5 1530.17,293.5 1531.5,293.5C 1532.31,298.094 1533.81,302.427 1536,306.5C 1537.21,302.384 1538.71,298.384 1540.5,294.5C 1541.5,293.167 1542.5,293.167 1543.5,294.5C 1540.76,301.873 1537.93,309.206 1535,316.5C 1533.21,318.229 1531.04,318.896 1528.5,318.5C 1528.5,317.5 1528.5,316.5 1528.5,315.5C 1531.93,316.245 1533.6,314.911 1533.5,311.5C 1531.7,305.425 1529.7,299.425 1527.5,293.5 Z"/></g>
<g><path style="opacity:1" fill="#353535" d="M 1555.5,293.5 C 1558.85,293.335 1562.18,293.502 1565.5,294C 1566.33,294.833 1567.17,295.667 1568,296.5C 1568.5,301.489 1568.67,306.489 1568.5,311.5C 1563.57,311.205 1558.57,311.038 1553.5,311C 1550.59,307.626 1550.93,304.626 1554.5,302C 1557.79,301.174 1561.13,300.674 1564.5,300.5C 1564.25,296.032 1561.92,294.532 1557.5,296C 1556.23,298.261 1554.56,298.761 1552.5,297.5C 1553.52,296.148 1554.52,294.815 1555.5,293.5 Z"/></g>
<g><path style="opacity:1" fill="#313131" d="M 1572.5,293.5 C 1573.5,293.5 1574.5,293.5 1575.5,293.5C 1576.1,298.31 1577.26,302.976 1579,307.5C 1580.01,303.117 1581.18,298.784 1582.5,294.5C 1583.69,293.571 1585.02,293.238 1586.5,293.5C 1587.2,297.956 1588.36,302.29 1590,306.5C 1591,302.833 1592,299.167 1593,295.5C 1594.19,293.441 1595.35,293.274 1596.5,295C 1594.8,299.773 1593.3,304.606 1592,309.5C 1590.85,311.497 1589.35,311.83 1587.5,310.5C 1586.76,306.001 1585.59,301.667 1584,297.5C 1583.3,302.641 1582.13,307.641 1580.5,312.5C 1579.5,312.5 1578.5,312.5 1577.5,312.5C 1575.53,306.238 1573.87,299.905 1572.5,293.5 Z"/></g>
<g><path style="opacity:1" fill="#353535" d="M 1603.5,293.5 C 1606.85,293.335 1610.18,293.502 1613.5,294C 1614.33,294.833 1615.17,295.667 1616,296.5C 1616.5,301.489 1616.67,306.489 1616.5,311.5C 1611.57,311.205 1606.57,311.038 1601.5,311C 1598.59,307.626 1598.93,304.626 1602.5,302C 1605.79,301.174 1609.13,300.674 1612.5,300.5C 1612.25,296.032 1609.92,294.532 1605.5,296C 1604.23,298.261 1602.56,298.761 1600.5,297.5C 1601.52,296.148 1602.52,294.815 1603.5,293.5 Z"/></g>
<g><path style="opacity:1" fill="#252525" d="M 1622.5,293.5 C 1623.75,293.577 1624.58,294.244 1625,295.5C 1626.88,293.424 1629.05,293.09 1631.5,294.5C 1628.25,294.785 1626.25,296.452 1625.5,299.5C 1624.83,303.353 1624.17,307.353 1623.5,311.5C 1622.5,305.537 1622.17,299.537 1622.5,293.5 Z"/></g>
<g><path style="opacity:1" fill="#2c2c2c" d="M 1649.5,299.5 C 1649.5,300.5 1649.5,301.5 1649.5,302.5C 1644.79,302.173 1640.12,302.507 1635.5,303.5C 1635.62,304.107 1635.96,304.44 1636.5,304.5C 1637.21,307.378 1639.05,309.045 1642,309.5C 1644.22,308.953 1646.22,307.953 1648,306.5C 1648.5,306.833 1649,307.167 1649.5,307.5C 1648.69,308.814 1647.69,309.981 1646.5,311C 1636.4,313.549 1631.9,309.716 1633,299.5C 1634.16,295.167 1636.99,293.167 1641.5,293.5C 1646.07,293.105 1648.73,295.105 1649.5,299.5 Z"/></g>
<g><path style="opacity:1" fill="#a2a2a2" d="M 1442.5,286.5 C 1443.57,285.566 1444.9,285.232 1446.5,285.5C 1446.5,289.167 1446.5,292.833 1446.5,296.5C 1450.5,296.5 1454.5,296.5 1458.5,296.5C 1458.5,292.833 1458.5,289.167 1458.5,285.5C 1460.1,285.232 1461.43,285.566 1462.5,286.5C 1461.5,286.5 1460.5,286.5 1459.5,286.5C 1459.5,290.167 1459.5,293.833 1459.5,297.5C 1454.83,297.5 1450.17,297.5 1445.5,297.5C 1445.5,293.833 1445.5,290.167 1445.5,286.5C 1444.5,286.5 1443.5,286.5 1442.5,286.5 Z"/></g>
<g><path style="opacity:1" fill="#eeeeee" d="M 1483.5,295.5 C 1489.39,296.264 1491.56,299.598 1490,305.5C 1487.81,309.872 1484.81,310.539 1481,307.5C 1480.33,304.167 1480.33,300.833 1481,297.5C 1481.99,296.934 1482.83,296.267 1483.5,295.5 Z"/></g>
<g><path style="opacity:1" fill="#e3e3e3" d="M 1639.5,295.5 C 1643.58,295.017 1645.91,296.684 1646.5,300.5C 1643.17,300.5 1639.83,300.5 1636.5,300.5C 1636.31,298.041 1637.31,296.374 1639.5,295.5 Z"/></g>
<g><path style="opacity:1" fill="#929292" d="M 1513.5,296.5 C 1514.49,301.64 1514.82,306.974 1514.5,312.5C 1513.17,312.5 1511.83,312.5 1510.5,312.5C 1510.5,307.833 1510.5,303.167 1510.5,298.5C 1511.17,302.684 1511.83,307.018 1512.5,311.5C 1513.49,306.544 1513.83,301.544 1513.5,296.5 Z"/></g>
<g><path style="opacity:1" fill="#aeaeae" d="M 1462.5,311.5 C 1461.43,312.434 1460.1,312.768 1458.5,312.5C 1458.5,308.5 1458.5,304.5 1458.5,300.5C 1454.5,300.5 1450.5,300.5 1446.5,300.5C 1446.5,304.5 1446.5,308.5 1446.5,312.5C 1444.9,312.768 1443.57,312.434 1442.5,311.5C 1443.5,311.5 1444.5,311.5 1445.5,311.5C 1445.5,307.5 1445.5,303.5 1445.5,299.5C 1450.17,299.5 1454.83,299.5 1459.5,299.5C 1459.5,303.5 1459.5,307.5 1459.5,311.5C 1460.5,311.5 1461.5,311.5 1462.5,311.5 Z"/></g>
<g><path style="opacity:1" fill="#7c7c7c" d="M 1622.5,293.5 C 1622.17,299.537 1622.5,305.537 1623.5,311.5C 1624.17,307.353 1624.83,303.353 1625.5,299.5C 1625.5,303.833 1625.5,308.167 1625.5,312.5C 1624.17,312.5 1622.83,312.5 1621.5,312.5C 1621.18,305.978 1621.51,299.645 1622.5,293.5 Z"/></g>
<g><path style="opacity:1" fill="#8c8c8c" d="M 1649.5,299.5 C 1650.43,300.568 1650.77,301.901 1650.5,303.5C 1645.64,303.181 1640.97,303.514 1636.5,304.5C 1635.96,304.44 1635.62,304.107 1635.5,303.5C 1640.12,302.507 1644.79,302.173 1649.5,302.5C 1649.5,301.5 1649.5,300.5 1649.5,299.5 Z"/></g>
<g><path style="opacity:1" fill="#e9e9e9" d="M 1557.5,303.5 C 1559.83,303.5 1562.17,303.5 1564.5,303.5C 1563.99,308.846 1561.15,310.513 1556,308.5C 1555.36,306.457 1555.86,304.79 1557.5,303.5 Z"/></g>
<g><path style="opacity:1" fill="#e9e9e9" d="M 1605.5,303.5 C 1607.83,303.5 1610.17,303.5 1612.5,303.5C 1611.99,308.846 1609.15,310.513 1604,308.5C 1603.36,306.457 1603.86,304.79 1605.5,303.5 Z"/></g>
<g><path style="opacity:1" fill="#dc3d17" d="M 1401.5,338.5 C 1417.18,337.679 1424.68,345.012 1424,360.5C 1420.34,371.252 1412.84,375.752 1401.5,374C 1388.74,367.719 1385.57,358.219 1392,345.5C 1394.79,342.535 1397.96,340.202 1401.5,338.5 Z"/></g>
<g><path style="opacity:1" fill="#2f2f2f" d="M 1448.5,343.5 C 1450.47,343.261 1452.3,343.594 1454,344.5C 1456.89,352.612 1460.06,360.612 1463.5,368.5C 1462.31,369.429 1460.98,369.762 1459.5,369.5C 1458.74,360.633 1454.08,357.967 1445.5,361.5C 1444.42,363.729 1443.76,366.063 1443.5,368.5C 1442.5,368.5 1441.5,368.5 1440.5,368.5C 1443.01,360.126 1445.68,351.793 1448.5,343.5 Z"/></g>
<g><path style="opacity:1" fill="#dfdfdf" d="M 1450.5,346.5 C 1452.92,350.076 1454.59,354.076 1455.5,358.5C 1452.83,358.5 1450.17,358.5 1447.5,358.5C 1448.09,354.385 1449.09,350.385 1450.5,346.5 Z"/></g>
<g><path style="opacity:1" fill="#333333" d="M 1460.5,350.5 C 1461.82,350.33 1462.99,350.663 1464,351.5C 1466.78,366.059 1468.95,365.726 1470.5,350.5C 1472.14,350.286 1473.64,350.62 1475,351.5C 1476.11,355.123 1477.11,358.79 1478,362.5C 1479.95,359.109 1481.29,355.442 1482,351.5C 1483.05,350.483 1484.22,350.316 1485.5,351C 1483.33,356.685 1481.66,362.518 1480.5,368.5C 1478.83,368.5 1477.17,368.5 1475.5,368.5C 1475.1,364.088 1474.26,359.754 1473,355.5C 1471.83,359.506 1470.67,363.506 1469.5,367.5C 1468.31,368.429 1466.98,368.762 1465.5,368.5C 1464.24,362.385 1462.57,356.385 1460.5,350.5 Z"/></g>
<g><path style="opacity:1" fill="#282828" d="M 1492.5,350.5 C 1496.31,350.163 1499.97,350.663 1503.5,352C 1504.81,357.446 1504.81,362.946 1503.5,368.5C 1502.52,368.023 1501.69,367.357 1501,366.5C 1497.74,368.429 1494.24,368.929 1490.5,368C 1487.69,364.706 1488.02,361.706 1491.5,359C 1494.83,358.39 1498.16,357.89 1501.5,357.5C 1501.58,354.415 1500.08,352.748 1497,352.5C 1494.38,353.312 1491.88,354.312 1489.5,355.5C 1489.31,353.041 1490.31,351.374 1492.5,350.5 Z"/></g>
<g><path style="opacity:1" fill="#b8b8b8" d="M 1513.5,350.5 C 1512.5,350.5 1511.5,350.5 1510.5,350.5C 1510.5,356.5 1510.5,362.5 1510.5,368.5C 1511.5,368.5 1512.5,368.5 1513.5,368.5C 1512.43,369.434 1511.1,369.768 1509.5,369.5C 1509.5,362.833 1509.5,356.167 1509.5,349.5C 1511.1,349.232 1512.43,349.566 1513.5,350.5 Z"/></g>
<g><path style="opacity:1" fill="#252525" d="M 1513.5,350.5 C 1515.54,350.564 1517.87,350.731 1520.5,351C 1519.87,351.75 1519.37,352.584 1519,353.5C 1517.06,352.14 1515.4,352.473 1514,354.5C 1513.5,359.155 1513.33,363.821 1513.5,368.5C 1512.5,368.5 1511.5,368.5 1510.5,368.5C 1510.5,362.5 1510.5,356.5 1510.5,350.5C 1511.5,350.5 1512.5,350.5 1513.5,350.5 Z"/></g>
<g><path style="opacity:1" fill="#2b2b2b" d="M 1538.5,359.5 C 1533.83,359.5 1529.17,359.5 1524.5,359.5C 1524.26,360.791 1524.6,361.791 1525.5,362.5C 1525.88,365.05 1527.38,366.383 1530,366.5C 1531.97,366.532 1533.47,365.698 1534.5,364C 1535.83,363.333 1537.17,363.333 1538.5,364C 1537.83,366 1536.5,367.333 1534.5,368C 1523.89,369.715 1519.72,365.215 1522,354.5C 1527.33,349.167 1532.67,349.167 1538,354.5C 1538.49,356.134 1538.66,357.801 1538.5,359.5 Z"/></g>
<g><path style="opacity:1" fill="#e1e1e1" d="M 1527.5,352.5 C 1531.22,351.773 1533.89,353.106 1535.5,356.5C 1531.83,357.833 1528.17,357.833 1524.5,356.5C 1525.52,355.148 1526.52,353.815 1527.5,352.5 Z"/></g>
<g><path style="opacity:1" fill="#129619" d="M 990.5,536.5 C 990.5,540.833 990.5,545.167 990.5,549.5C 902.665,549.833 814.998,549.499 727.5,548.5C 786.173,483.494 844.84,418.494 903.5,353.5C 956.351,402.88 985.351,463.88 990.5,536.5 Z"/></g>
<g><path style="opacity:1" fill="#929292" d="M 1538.5,359.5 C 1533.91,359.865 1529.57,360.865 1525.5,362.5C 1524.6,361.791 1524.26,360.791 1524.5,359.5C 1529.17,359.5 1533.83,359.5 1538.5,359.5 Z"/></g>
<g><path style="opacity:1" fill="#e2e2e2" d="M 1498.5,359.5 C 1499.5,359.5 1500.5,359.5 1501.5,359.5C 1501.72,363.451 1499.88,365.784 1496,366.5C 1491.69,365.917 1490.86,364.084 1493.5,361C 1495.38,360.802 1497.05,360.302 1498.5,359.5 Z"/></g>
<g><path style="opacity:1" fill="#fff5e6" d="M 573.5,385.5 C 574.833,385.5 576.167,385.5 577.5,385.5C 577.5,391.167 577.5,396.833 577.5,402.5C 578.5,402.5 579.5,402.5 580.5,402.5C 580.5,403.5 580.5,404.5 580.5,405.5C 579.5,405.5 578.5,405.5 577.5,405.5C 577.5,407.5 577.5,409.5 577.5,411.5C 576.167,411.5 574.833,411.5 573.5,411.5C 573.5,409.5 573.5,407.5 573.5,405.5C 569.833,405.5 566.167,405.5 562.5,405.5C 562.343,404.127 562.51,402.793 563,401.5C 567.142,396.537 570.642,391.204 573.5,385.5 Z"/></g>
<g><path style="opacity:1" fill="#fff7ec" d="M 589.5,385.5 C 598.772,385.083 601.772,389.083 598.5,397.5C 603,402.832 602.334,407.332 596.5,411C 590.827,412.662 586.827,410.829 584.5,405.5C 585.167,405.167 585.833,404.833 586.5,404.5C 588.286,406.453 590.453,407.787 593,408.5C 598.282,407.431 599.449,404.764 596.5,400.5C 589.164,399.887 588.997,397.887 596,394.5C 597.5,389.333 595.667,387.5 590.5,389C 589.491,391.172 587.824,392.338 585.5,392.5C 585.187,389.163 586.52,386.829 589.5,385.5 Z"/></g>
<g><path style="opacity:1" fill="#fff7ec" d="M 619.5,385.5 C 628.772,385.083 631.772,389.083 628.5,397.5C 633,402.832 632.334,407.332 626.5,411C 620.827,412.662 616.827,410.829 614.5,405.5C 615.167,405.167 615.833,404.833 616.5,404.5C 618.286,406.453 620.453,407.787 623,408.5C 628.282,407.431 629.449,404.764 626.5,400.5C 619.164,399.887 618.997,397.887 626,394.5C 627.5,389.333 625.667,387.5 620.5,389C 619.491,391.172 617.824,392.338 615.5,392.5C 615.187,389.163 616.52,386.829 619.5,385.5 Z"/></g>
<g><path style="opacity:1" fill="#fff5e7" d="M 639.5,385.5 C 646.314,385.49 648.814,388.823 647,395.5C 644.127,400.408 640.794,400.741 637,396.5C 635.813,392.217 636.647,388.55 639.5,385.5 Z"/></g>
<g><path style="opacity:1" fill="#ff9c12" d="M 639.5,388.5 C 642.93,387.755 644.597,389.089 644.5,392.5C 644.597,395.911 642.93,397.245 639.5,396.5C 639.5,393.833 639.5,391.167 639.5,388.5 Z"/></g>
<g><path style="opacity:1" fill="#ff9b0e" d="M 572.5,392.5 C 573.479,395.625 573.813,398.958 573.5,402.5C 571.076,402.808 568.743,402.474 566.5,401.5C 568.758,398.643 570.758,395.643 572.5,392.5 Z"/></g>
<g><path style="opacity:1" fill="#fff4e5" d="M 655.5,385.5 C 656.552,385.351 657.552,385.517 658.5,386C 653.951,393.595 649.785,401.429 646,409.5C 644.867,411.211 643.367,411.711 641.5,411C 646.306,402.553 650.973,394.053 655.5,385.5 Z"/></g>
<g><path style="opacity:1" fill="#ff9a09" d="M 1401.5,395.5 C 1417.18,394.679 1424.68,402.012 1424,417.5C 1420.34,428.252 1412.84,432.752 1401.5,431C 1388.74,424.719 1385.57,415.219 1392,402.5C 1394.79,399.535 1397.96,397.202 1401.5,395.5 Z"/></g>
<g><path style="opacity:1" fill="#fff4e4" d="M 655.5,397.5 C 662.745,396.963 665.578,400.296 664,407.5C 662.309,411.213 659.475,412.379 655.5,411C 651.555,406.503 651.555,402.003 655.5,397.5 Z"/></g>
<g><path style="opacity:1" fill="#ffa632" d="M 657.5,399.5 C 660.05,399.884 661.383,401.384 661.5,404C 659.5,411.333 657.5,411.333 655.5,404C 655.519,402.167 656.185,400.667 657.5,399.5 Z"/></g>
<g><path style="opacity:1" fill="#212221" d="M 1445.5,400.5 C 1445.5,407.833 1445.5,415.167 1445.5,422.5C 1449.35,423.166 1453.35,423.833 1457.5,424.5C 1452.54,425.494 1447.54,425.827 1442.5,425.5C 1442.5,417.167 1442.5,408.833 1442.5,400.5C 1443.5,400.5 1444.5,400.5 1445.5,400.5 Z"/></g>
<g><path style="opacity:1" fill="#fffbf7" d="M 607.5,407.5 C 608.833,407.5 610.167,407.5 611.5,407.5C 611.5,408.833 611.5,410.167 611.5,411.5C 610.167,411.5 608.833,411.5 607.5,411.5C 607.5,410.167 607.5,408.833 607.5,407.5 Z"/></g>
<g><path style="opacity:1" fill="#373737" d="M 1465.5,407.5 C 1476.16,405.658 1480.66,409.991 1479,420.5C 1475.75,425.223 1471.25,426.723 1465.5,425C 1460.21,419.168 1460.21,413.335 1465.5,407.5 Z"/></g>
<g><path style="opacity:1" fill="#313131" d="M 1482.5,407.5 C 1483.5,407.5 1484.5,407.5 1485.5,407.5C 1486.1,412.31 1487.26,416.976 1489,421.5C 1490.01,417.117 1491.18,412.784 1492.5,408.5C 1493.69,407.571 1495.02,407.238 1496.5,407.5C 1497.2,411.956 1498.36,416.29 1500,420.5C 1501,416.833 1502,413.167 1503,409.5C 1504.19,407.441 1505.35,407.274 1506.5,409C 1504.8,413.773 1503.3,418.606 1502,423.5C 1500.85,425.497 1499.35,425.83 1497.5,424.5C 1496.76,420.001 1495.59,415.667 1494,411.5C 1493.3,416.641 1492.13,421.641 1490.5,426.5C 1489.5,426.5 1488.5,426.5 1487.5,426.5C 1485.53,420.238 1483.87,413.905 1482.5,407.5 Z"/></g>
<g><path style="opacity:1" fill="#353535" d="M 1522.5,407.5 C 1525.85,407.335 1529.18,407.502 1532.5,408C 1533.33,408.833 1534.17,409.667 1535,410.5C 1535.5,415.489 1535.67,420.489 1535.5,425.5C 1530.57,425.205 1525.57,425.038 1520.5,425C 1517.59,421.626 1517.93,418.626 1521.5,416C 1524.79,415.174 1528.13,414.674 1531.5,414.5C 1531.25,410.032 1528.92,408.532 1524.5,410C 1523.23,412.261 1521.56,412.761 1519.5,411.5C 1520.52,410.148 1521.52,408.815 1522.5,407.5 Z"/></g>
<g><path style="opacity:1" fill="#313131" d="M 1539.5,407.5 C 1540.5,407.5 1541.5,407.5 1542.5,407.5C 1543.1,412.31 1544.26,416.976 1546,421.5C 1547.01,417.117 1548.18,412.784 1549.5,408.5C 1550.69,407.571 1552.02,407.238 1553.5,407.5C 1554.2,411.956 1555.36,416.29 1557,420.5C 1558,416.833 1559,413.167 1560,409.5C 1561.19,407.441 1562.35,407.274 1563.5,409C 1561.8,413.773 1560.3,418.606 1559,423.5C 1557.85,425.497 1556.35,425.83 1554.5,424.5C 1553.76,420.001 1552.59,415.667 1551,411.5C 1550.3,416.641 1549.13,421.641 1547.5,426.5C 1546.5,426.5 1545.5,426.5 1544.5,426.5C 1542.53,420.238 1540.87,413.905 1539.5,407.5 Z"/></g>
<g><path style="opacity:1" fill="#353535" d="M 1570.5,407.5 C 1573.85,407.335 1577.18,407.502 1580.5,408C 1581.33,408.833 1582.17,409.667 1583,410.5C 1583.5,415.489 1583.67,420.489 1583.5,425.5C 1578.57,425.205 1573.57,425.038 1568.5,425C 1565.59,421.626 1565.93,418.626 1569.5,416C 1572.79,415.174 1576.13,414.674 1579.5,414.5C 1579.25,410.032 1576.92,408.532 1572.5,410C 1571.23,412.261 1569.56,412.761 1567.5,411.5C 1568.52,410.148 1569.52,408.815 1570.5,407.5 Z"/></g>
<g><path style="opacity:1" fill="#252525" d="M 1589.5,407.5 C 1590.75,407.577 1591.58,408.244 1592,409.5C 1593.88,407.424 1596.05,407.09 1598.5,408.5C 1595.25,408.785 1593.25,410.452 1592.5,413.5C 1591.83,417.353 1591.17,421.353 1590.5,425.5C 1589.5,419.537 1589.17,413.537 1589.5,407.5 Z"/></g>
<g><path style="opacity:1" fill="#2c2c2c" d="M 1616.5,413.5 C 1616.5,414.5 1616.5,415.5 1616.5,416.5C 1611.79,416.173 1607.12,416.507 1602.5,417.5C 1602.62,418.107 1602.96,418.44 1603.5,418.5C 1604.21,421.378 1606.05,423.045 1609,423.5C 1611.22,422.953 1613.22,421.953 1615,420.5C 1615.5,420.833 1616,421.167 1616.5,421.5C 1615.69,422.814 1614.69,423.981 1613.5,425C 1603.4,427.549 1598.9,423.716 1600,413.5C 1601.16,409.167 1603.99,407.167 1608.5,407.5C 1613.07,407.105 1615.73,409.105 1616.5,413.5 Z"/></g>
<g><path style="opacity:1" fill="#2b2b2b" d="M 1622.5,407.5 C 1623.75,407.577 1624.58,408.244 1625,409.5C 1627.84,407.496 1631.01,406.996 1634.5,408C 1635.38,408.708 1636.05,409.542 1636.5,410.5C 1636.5,415.5 1636.5,420.5 1636.5,425.5C 1635.5,425.5 1634.5,425.5 1633.5,425.5C 1633.83,420.456 1633.49,415.456 1632.5,410.5C 1628.86,408.653 1626.52,409.653 1625.5,413.5C 1624.83,417.353 1624.17,421.353 1623.5,425.5C 1622.5,419.537 1622.17,413.537 1622.5,407.5 Z"/></g>
<g><path style="opacity:1" fill="#2c2c2c" d="M 1658.5,413.5 C 1658.5,414.5 1658.5,415.5 1658.5,416.5C 1653.79,416.173 1649.12,416.507 1644.5,417.5C 1644.62,418.107 1644.96,418.44 1645.5,418.5C 1646.21,421.378 1648.05,423.045 1651,423.5C 1653.22,422.953 1655.22,421.953 1657,420.5C 1657.5,420.833 1658,421.167 1658.5,421.5C 1657.69,422.814 1656.69,423.981 1655.5,425C 1645.4,427.549 1640.9,423.716 1642,413.5C 1643.16,409.167 1645.99,407.167 1650.5,407.5C 1655.07,407.105 1657.73,409.105 1658.5,413.5 Z"/></g>
<g><path style="opacity:1" fill="#2d2d2d" d="M 1665.5,407.5 C 1668.52,407.335 1671.52,407.502 1674.5,408C 1675.33,408.833 1676.17,409.667 1677,410.5C 1677.59,411.483 1677.26,412.15 1676,412.5C 1674.22,411.047 1672.22,410.047 1670,409.5C 1666.72,409.7 1665.88,411.2 1667.5,414C 1671.04,414.187 1674.21,415.354 1677,417.5C 1678.65,423.523 1676.32,426.189 1670,425.5C 1666.25,426.081 1663.75,424.581 1662.5,421C 1663.17,420.833 1663.83,420.667 1664.5,420.5C 1666.89,423.239 1669.89,424.072 1673.5,423C 1674.83,421.667 1674.83,420.333 1673.5,419C 1669.74,418.642 1666.58,417.142 1664,414.5C 1663.17,411.829 1663.67,409.496 1665.5,407.5 Z"/></g>
<g><path style="opacity:1" fill="#2d2d2d" d="M 1686.5,407.5 C 1689.52,407.335 1692.52,407.502 1695.5,408C 1696.33,408.833 1697.17,409.667 1698,410.5C 1698.59,411.483 1698.26,412.15 1697,412.5C 1695.22,411.047 1693.22,410.047 1691,409.5C 1687.72,409.7 1686.88,411.2 1688.5,414C 1692.04,414.187 1695.21,415.354 1698,417.5C 1699.65,423.523 1697.32,426.189 1691,425.5C 1687.25,426.081 1684.75,424.581 1683.5,421C 1684.17,420.833 1684.83,420.667 1685.5,420.5C 1687.89,423.239 1690.89,424.072 1694.5,423C 1695.83,421.667 1695.83,420.333 1694.5,419C 1690.74,418.642 1687.58,417.142 1685,414.5C 1684.17,411.829 1684.67,409.496 1686.5,407.5 Z"/></g>
<g><path style="opacity:1" fill="#f6f6f6" d="M 1468.5,409.5 C 1475.11,410.258 1477.28,413.925 1475,420.5C 1471.95,424.482 1468.95,424.482 1466,420.5C 1465.33,417.5 1465.33,414.5 1466,411.5C 1466.99,410.934 1467.83,410.267 1468.5,409.5 Z"/></g>
<g><path style="opacity:1" fill="#e3e3e3" d="M 1606.5,409.5 C 1610.58,409.017 1612.91,410.684 1613.5,414.5C 1610.17,414.5 1606.83,414.5 1603.5,414.5C 1603.31,412.041 1604.31,410.374 1606.5,409.5 Z"/></g>
<g><path style="opacity:1" fill="#e3e3e3" d="M 1648.5,409.5 C 1652.58,409.017 1654.91,410.684 1655.5,414.5C 1652.17,414.5 1648.83,414.5 1645.5,414.5C 1645.31,412.041 1646.31,410.374 1648.5,409.5 Z"/></g>
<g><path style="opacity:1" fill="#949494" d="M 1636.5,410.5 C 1637.49,415.64 1637.82,420.974 1637.5,426.5C 1635.9,426.768 1634.57,426.434 1633.5,425.5C 1634.5,425.5 1635.5,425.5 1636.5,425.5C 1636.5,420.5 1636.5,415.5 1636.5,410.5 Z"/></g>
<g><path style="opacity:1" fill="#7c7c7c" d="M 1589.5,407.5 C 1589.17,413.537 1589.5,419.537 1590.5,425.5C 1591.17,421.353 1591.83,417.353 1592.5,413.5C 1592.5,417.833 1592.5,422.167 1592.5,426.5C 1591.17,426.5 1589.83,426.5 1588.5,426.5C 1588.18,419.978 1588.51,413.645 1589.5,407.5 Z"/></g>
<g><path style="opacity:1" fill="#7c7c7c" d="M 1622.5,407.5 C 1622.17,413.537 1622.5,419.537 1623.5,425.5C 1624.17,421.353 1624.83,417.353 1625.5,413.5C 1625.5,417.833 1625.5,422.167 1625.5,426.5C 1624.17,426.5 1622.83,426.5 1621.5,426.5C 1621.18,419.978 1621.51,413.645 1622.5,407.5 Z"/></g>
<g><path style="opacity:1" fill="#8c8c8c" d="M 1616.5,413.5 C 1617.43,414.568 1617.77,415.901 1617.5,417.5C 1612.64,417.181 1607.97,417.514 1603.5,418.5C 1602.96,418.44 1602.62,418.107 1602.5,417.5C 1607.12,416.507 1611.79,416.173 1616.5,416.5C 1616.5,415.5 1616.5,414.5 1616.5,413.5 Z"/></g>
<g><path style="opacity:1" fill="#8c8c8c" d="M 1658.5,413.5 C 1659.43,414.568 1659.77,415.901 1659.5,417.5C 1654.64,417.181 1649.97,417.514 1645.5,418.5C 1644.96,418.44 1644.62,418.107 1644.5,417.5C 1649.12,416.507 1653.79,416.173 1658.5,416.5C 1658.5,415.5 1658.5,414.5 1658.5,413.5 Z"/></g>
<g><path style="opacity:1" fill="#e9e9e9" d="M 1524.5,417.5 C 1526.83,417.5 1529.17,417.5 1531.5,417.5C 1530.99,422.846 1528.15,424.513 1523,422.5C 1522.36,420.457 1522.86,418.79 1524.5,417.5 Z"/></g>
<g><path style="opacity:1" fill="#e9e9e9" d="M 1572.5,417.5 C 1574.83,417.5 1577.17,417.5 1579.5,417.5C 1578.99,422.846 1576.15,424.513 1571,422.5C 1570.36,420.457 1570.86,418.79 1572.5,417.5 Z"/></g>
<g><path style="opacity:1" fill="#9c9c9c" d="M 1445.5,400.5 C 1444.5,400.5 1443.5,400.5 1442.5,400.5C 1442.5,408.833 1442.5,417.167 1442.5,425.5C 1447.54,425.827 1452.54,425.494 1457.5,424.5C 1453.35,423.833 1449.35,423.166 1445.5,422.5C 1449.83,422.5 1454.17,422.5 1458.5,422.5C 1458.5,423.833 1458.5,425.167 1458.5,426.5C 1452.83,426.5 1447.17,426.5 1441.5,426.5C 1441.5,417.5 1441.5,408.5 1441.5,399.5C 1443.1,399.232 1444.43,399.566 1445.5,400.5 Z"/></g>
<g><path style="opacity:1" fill="#18971d" d="M 1401.5,452.5 C 1417.18,451.679 1424.68,459.012 1424,474.5C 1420.34,485.252 1412.84,489.752 1401.5,488C 1388.74,481.719 1385.57,472.219 1392,459.5C 1394.79,456.535 1397.96,454.202 1401.5,452.5 Z"/></g>
<g><path style="opacity:1" fill="#b9b9b9" d="M 1445.5,457.5 C 1444.5,457.5 1443.5,457.5 1442.5,457.5C 1442.5,465.833 1442.5,474.167 1442.5,482.5C 1443.5,482.5 1444.5,482.5 1445.5,482.5C 1444.43,483.434 1443.1,483.768 1441.5,483.5C 1441.5,474.5 1441.5,465.5 1441.5,456.5C 1443.1,456.232 1444.43,456.566 1445.5,457.5 Z"/></g>
<g><path style="opacity:1" fill="#262626" d="M 1445.5,457.5 C 1449.98,463.767 1454.48,470.1 1459,476.5C 1459.5,470.175 1459.67,463.842 1459.5,457.5C 1460.5,457.5 1461.5,457.5 1462.5,457.5C 1462.5,465.833 1462.5,474.167 1462.5,482.5C 1460.86,482.714 1459.36,482.38 1458,481.5C 1454,475.5 1450,469.5 1446,463.5C 1445.5,469.825 1445.33,476.158 1445.5,482.5C 1444.5,482.5 1443.5,482.5 1442.5,482.5C 1442.5,474.167 1442.5,465.833 1442.5,457.5C 1443.5,457.5 1444.5,457.5 1445.5,457.5 Z"/></g>
<g><path style="opacity:1" fill="#9a9a9a" d="M 1498.5,456.5 C 1499.83,456.5 1501.17,456.5 1502.5,456.5C 1502.5,458.167 1502.5,459.833 1502.5,461.5C 1501.17,461.5 1499.83,461.5 1498.5,461.5C 1498.5,459.833 1498.5,458.167 1498.5,456.5 Z"/></g>
<g><path style="opacity:1" fill="#212221" d="M 1499.5,457.5 C 1501.46,457.948 1501.8,458.948 1500.5,460.5C 1499.61,459.675 1499.28,458.675 1499.5,457.5 Z"/></g>
<g><path style="opacity:1" fill="#323232" d="M 1519.5,457.5 C 1520.5,457.5 1521.5,457.5 1522.5,457.5C 1522.83,465.86 1522.5,474.193 1521.5,482.5C 1520.81,481.975 1520.31,481.308 1520,480.5C 1519.6,480.728 1519.43,481.062 1519.5,481.5C 1509.49,483.903 1505.33,479.903 1507,469.5C 1509.49,464.584 1513.32,463.251 1518.5,465.5C 1519.48,462.914 1519.81,460.247 1519.5,457.5 Z"/></g>
<g><path style="opacity:1" fill="#929292" d="M 1519.5,457.5 C 1520.57,456.566 1521.9,456.232 1523.5,456.5C 1523.5,465.5 1523.5,474.5 1523.5,483.5C 1521.52,483.843 1520.18,483.176 1519.5,481.5C 1519.43,481.062 1519.6,480.728 1520,480.5C 1520.31,481.308 1520.81,481.975 1521.5,482.5C 1522.5,474.193 1522.83,465.86 1522.5,457.5C 1521.5,457.5 1520.5,457.5 1519.5,457.5 Z"/></g>
<g><path style="opacity:1" fill="#f0f8f1" d="M 849.5,490.5 C 849.83,483.8 849.497,477.134 848.5,470.5C 847.893,470.624 847.56,470.957 847.5,471.5C 846.115,472.614 844.615,473.614 843,474.5C 842.219,473.056 842.386,471.723 843.5,470.5C 846.152,469.347 848.152,467.513 849.5,465C 850.448,464.517 851.448,464.351 852.5,464.5C 852.5,473.167 852.5,481.833 852.5,490.5C 851.5,490.5 850.5,490.5 849.5,490.5 Z"/></g>
<g><path style="opacity:1" fill="#edf7ed" d="M 865.5,464.5 C 875.299,463.44 878.299,467.273 874.5,476C 880.462,483.267 878.796,488.101 869.5,490.5C 864.913,490.241 862.247,487.908 861.5,483.5C 864.108,483.606 866.108,484.772 867.5,487C 872.667,487.833 874.833,485.667 874,480.5C 872.211,478.771 870.044,478.104 867.5,478.5C 867.281,477.325 867.614,476.325 868.5,475.5C 872.547,474.498 873.88,472.165 872.5,468.5C 868.908,466.7 866.241,467.534 864.5,471C 863.552,471.483 862.552,471.649 861.5,471.5C 861.998,468.674 863.331,466.34 865.5,464.5 Z"/></g>
<g><path style="opacity:1" fill="#edf7ed" d="M 895.5,464.5 C 905.299,463.44 908.299,467.273 904.5,476C 910.462,483.267 908.796,488.101 899.5,490.5C 894.913,490.241 892.247,487.908 891.5,483.5C 894.108,483.606 896.108,484.772 897.5,487C 902.667,487.833 904.833,485.667 904,480.5C 902.211,478.771 900.044,478.104 897.5,478.5C 897.281,477.325 897.614,476.325 898.5,475.5C 902.547,474.498 903.88,472.165 902.5,468.5C 898.908,466.7 896.241,467.534 894.5,471C 893.552,471.483 892.552,471.649 891.5,471.5C 891.998,468.674 893.331,466.34 895.5,464.5 Z"/></g>
<g><path style="opacity:1" fill="#e8f5e8" d="M 915.5,464.5 C 918.365,464.055 920.865,464.722 923,466.5C 924.262,470.909 923.428,474.743 920.5,478C 913.917,478.401 911.417,475.235 913,468.5C 913.662,467.016 914.496,465.683 915.5,464.5 Z"/></g>
<g><path style="opacity:1" fill="#373737" d="M 1471.5,464.5 C 1482.16,462.658 1486.66,466.991 1485,477.5C 1481.75,482.223 1477.25,483.723 1471.5,482C 1466.21,476.168 1466.21,470.335 1471.5,464.5 Z"/></g>
<g><path style="opacity:1" fill="#909090" d="M 1498.5,463.5 C 1499.83,463.5 1501.17,463.5 1502.5,463.5C 1502.5,470.167 1502.5,476.833 1502.5,483.5C 1501.17,483.5 1499.83,483.5 1498.5,483.5C 1498.5,476.833 1498.5,470.167 1498.5,463.5 Z"/></g>
<g><path style="opacity:1" fill="#212221" d="M 1499.5,464.5 C 1500.82,467.087 1501.48,470.087 1501.5,473.5C 1501.17,476.5 1500.83,479.5 1500.5,482.5C 1499.5,476.537 1499.17,470.537 1499.5,464.5 Z"/></g>
<g><path style="opacity:1" fill="#2c2c2c" d="M 1544.5,470.5 C 1544.5,471.5 1544.5,472.5 1544.5,473.5C 1539.79,473.173 1535.12,473.507 1530.5,474.5C 1530.62,475.107 1530.96,475.44 1531.5,475.5C 1532.21,478.378 1534.05,480.045 1537,480.5C 1539.22,479.953 1541.22,478.953 1543,477.5C 1543.5,477.833 1544,478.167 1544.5,478.5C 1543.69,479.814 1542.69,480.981 1541.5,482C 1531.4,484.549 1526.9,480.716 1528,470.5C 1529.16,466.167 1531.99,464.167 1536.5,464.5C 1541.07,464.105 1543.73,466.105 1544.5,470.5 Z"/></g>
<g><path style="opacity:1" fill="#353535" d="M 1552.5,464.5 C 1555.85,464.335 1559.18,464.502 1562.5,465C 1563.33,465.833 1564.17,466.667 1565,467.5C 1565.5,472.489 1565.67,477.489 1565.5,482.5C 1560.57,482.205 1555.57,482.038 1550.5,482C 1547.59,478.626 1547.93,475.626 1551.5,473C 1554.79,472.174 1558.13,471.674 1561.5,471.5C 1561.25,467.032 1558.92,465.532 1554.5,467C 1553.23,469.261 1551.56,469.761 1549.5,468.5C 1550.52,467.148 1551.52,465.815 1552.5,464.5 Z"/></g>
<g><path style="opacity:1" fill="#229a24" d="M 917.5,466.5 C 918.496,466.414 919.329,466.748 920,467.5C 920.497,470.146 920.664,472.813 920.5,475.5C 919.167,475.5 917.833,475.5 916.5,475.5C 914.9,472.2 915.233,469.2 917.5,466.5 Z"/></g>
<g><path style="opacity:1" fill="#f6f6f6" d="M 1474.5,466.5 C 1481.11,467.258 1483.28,470.925 1481,477.5C 1477.95,481.482 1474.95,481.482 1472,477.5C 1471.33,474.5 1471.33,471.5 1472,468.5C 1472.99,467.934 1473.83,467.267 1474.5,466.5 Z"/></g>
<g><path style="opacity:1" fill="#f2f2f2" d="M 1512.5,466.5 C 1514.94,466.317 1517.1,466.984 1519,468.5C 1519.67,471.833 1519.67,475.167 1519,478.5C 1515.99,481.25 1513.32,480.917 1511,477.5C 1510.01,473.525 1510.51,469.859 1512.5,466.5 Z"/></g>
<g><path style="opacity:1" fill="#e3e3e3" d="M 1534.5,466.5 C 1538.58,466.017 1540.91,467.684 1541.5,471.5C 1538.17,471.5 1534.83,471.5 1531.5,471.5C 1531.31,469.041 1532.31,467.374 1534.5,466.5 Z"/></g>
<g><path style="opacity:1" fill="#b3ddb5" d="M 847.5,471.5 C 847.56,470.957 847.893,470.624 848.5,470.5C 849.497,477.134 849.83,483.8 849.5,490.5C 848.833,484.167 848.167,477.833 847.5,471.5 Z"/></g>
<g><path style="opacity:1" fill="#8c8c8c" d="M 1544.5,470.5 C 1545.43,471.568 1545.77,472.901 1545.5,474.5C 1540.64,474.181 1535.97,474.514 1531.5,475.5C 1530.96,475.44 1530.62,475.107 1530.5,474.5C 1535.12,473.507 1539.79,473.173 1544.5,473.5C 1544.5,472.5 1544.5,471.5 1544.5,470.5 Z"/></g>
<g><path style="opacity:1" fill="#e9e9e9" d="M 1554.5,474.5 C 1556.83,474.5 1559.17,474.5 1561.5,474.5C 1560.99,479.846 1558.15,481.513 1553,479.5C 1552.36,477.457 1552.86,475.79 1554.5,474.5 Z"/></g>
<g><path style="opacity:1" fill="#ebf6ec" d="M 931.5,476.5 C 939.562,475.923 942.396,479.59 940,487.5C 936.667,491.5 933.333,491.5 930,487.5C 929.112,483.598 929.612,479.931 931.5,476.5 Z"/></g>
<g><path style="opacity:1" fill="#209a23" d="M 933.5,478.5 C 934.822,478.33 935.989,478.663 937,479.5C 937.667,481.833 937.667,484.167 937,486.5C 935.667,487.833 934.333,487.833 933,486.5C 932.278,483.739 932.445,481.073 933.5,478.5 Z"/></g>
<g><path style="opacity:1" fill="#e8f5e8" d="M 931.5,464.5 C 932.675,464.281 933.675,464.614 934.5,465.5C 930.16,474.189 925.326,482.523 920,490.5C 919.5,490.167 919,489.833 918.5,489.5C 923.114,481.27 927.447,472.937 931.5,464.5 Z"/></g>
<g><path style="opacity:1" fill="#e9f5e9" d="M 883.5,486.5 C 884.833,486.5 886.167,486.5 887.5,486.5C 887.5,487.833 887.5,489.167 887.5,490.5C 886.167,490.5 884.833,490.5 883.5,490.5C 883.5,489.167 883.5,487.833 883.5,486.5 Z"/></g>
<g><path style="opacity:1" fill="#89cc8d" d="M 990.5,536.5 C 991.486,540.97 991.819,545.637 991.5,550.5C 903.164,550.833 814.831,550.5 726.5,549.5C 726.624,548.893 726.957,548.56 727.5,548.5C 814.998,549.499 902.665,549.833 990.5,549.5C 990.5,545.167 990.5,540.833 990.5,536.5 Z"/></g>
<g><path style="opacity:1" fill="#cbd8f2" d="M 990.5,553.5 C 901.998,553.167 813.665,553.501 725.5,554.5C 724.957,554.44 724.624,554.107 724.5,553.5C 813.332,552.168 901.999,552.168 990.5,553.5 Z"/></g>
<g><path style="opacity:1" fill="#3366cc" d="M 990.5,553.5 C 988.104,640.457 953.104,710.957 885.5,765C 861.683,783.243 835.35,796.743 806.5,805.5C 779.702,721.772 752.702,638.106 725.5,554.5C 813.665,553.501 901.998,553.167 990.5,553.5 Z"/></g>
<g><path style="opacity:1" fill="#dc3912" d="M 720.5,553.5 C 724.316,561.428 727.482,569.761 730,578.5C 755.013,654.704 779.513,731.037 803.5,807.5C 706.785,834.813 620.118,816.313 543.5,752C 515.634,726.809 493.967,697.143 478.5,663C 480.801,660.844 483.467,659.178 486.5,658C 564.708,623.391 642.708,588.558 720.5,553.5 Z"/></g>
<g><path style="opacity:1" fill="#e6ecf8" d="M 853.5,652.5 C 864.333,653.475 866.833,658.475 861,667.5C 857.87,669.628 855.037,672.128 852.5,675C 856.486,675.499 860.486,675.666 864.5,675.5C 864.5,676.833 864.5,678.167 864.5,679.5C 858.463,679.829 852.463,679.496 846.5,678.5C 847.333,676.833 848.167,675.167 849,673.5C 853.333,670.5 857,666.833 860,662.5C 861.484,658.451 860.151,656.451 856,656.5C 852.241,656.093 850.741,657.76 851.5,661.5C 850.167,661.5 848.833,661.5 847.5,661.5C 847.759,657.309 849.759,654.309 853.5,652.5 Z"/></g>
<g><path style="opacity:1" fill="#e7ecf9" d="M 874.5,652.5 C 879.919,651.959 883.419,654.293 885,659.5C 885.667,663.833 885.667,668.167 885,672.5C 882.761,678.872 878.594,680.705 872.5,678C 870.513,676.681 869.346,674.848 869,672.5C 868.161,667.079 868.494,661.746 870,656.5C 871.397,654.93 872.897,653.596 874.5,652.5 Z"/></g>
<g><path style="opacity:1" fill="#e5eaf8" d="M 893.5,652.5 C 900.108,653.285 902.608,656.952 901,663.5C 895.24,669.431 891.406,668.265 889.5,660C 889.927,656.977 891.261,654.477 893.5,652.5 Z"/></g>
<g><path style="opacity:1" fill="#456fcf" d="M 894.5,655.5 C 897.309,655.588 898.642,657.088 898.5,660C 898.534,663.581 897.034,664.748 894,663.5C 893.278,660.739 893.445,658.073 894.5,655.5 Z"/></g>
<g><path style="opacity:1" fill="#3366cc" d="M 874.5,656.5 C 877.547,655.855 879.713,656.855 881,659.5C 881.667,663.833 881.667,668.167 881,672.5C 878.822,676.065 876.156,676.399 873,673.5C 872.333,668.5 872.333,663.5 873,658.5C 873.717,657.956 874.217,657.289 874.5,656.5 Z"/></g>
<g><path style="opacity:1" fill="#e8edf9" d="M 909.5,652.5 C 910.675,652.281 911.675,652.614 912.5,653.5C 907.825,660.847 903.658,668.514 900,676.5C 899.221,677.728 898.221,678.728 897,679.5C 896.5,679.167 896,678.833 895.5,678.5C 900.631,670.048 905.297,661.382 909.5,652.5 Z"/></g>
<g><path style="opacity:1" fill="#e7ecf9" d="M 910.5,664.5 C 913.325,664.081 915.491,665.081 917,667.5C 917.667,670.5 917.667,673.5 917,676.5C 914.374,680.072 911.374,680.405 908,677.5C 905.467,672.351 906.3,668.018 910.5,664.5 Z"/></g>
<g><path style="opacity:1" fill="#3d6bcd" d="M 910.5,667.5 C 913.734,667.237 915.068,668.737 914.5,672C 915.068,675.263 913.734,676.763 910.5,676.5C 909.412,673.444 909.412,670.444 910.5,667.5 Z"/></g>
<g><path style="opacity:1" fill="#fdefec" d="M 612.5,741.5 C 606.402,742.117 600.735,741.45 595.5,739.5C 599.123,734.375 603.29,729.709 608,725.5C 609.513,721.229 608.013,718.895 603.5,718.5C 600.686,718.981 599.352,720.648 599.5,723.5C 598.167,723.5 596.833,723.5 595.5,723.5C 597.372,715.733 602.039,713.566 609.5,717C 612.097,719.317 612.93,722.15 612,725.5C 608.535,729.967 604.702,734.133 600.5,738C 604.486,738.499 608.486,738.666 612.5,738.5C 612.5,739.5 612.5,740.5 612.5,741.5 Z"/></g>
<g><path style="opacity:1" fill="#fcebe7" d="M 621.5,715.5 C 627.34,714.579 631.007,716.913 632.5,722.5C 632.152,724.697 631.152,726.53 629.5,728C 634.778,732.158 634.778,736.491 629.5,741C 625.428,741.956 621.595,741.456 618,739.5C 616.991,737.975 616.491,736.308 616.5,734.5C 619.114,734.277 620.781,735.444 621.5,738C 627.493,739.668 629.993,737.502 629,731.5C 627.103,729.984 624.936,729.317 622.5,729.5C 622.5,728.5 622.5,727.5 622.5,726.5C 625.864,727.127 627.864,725.794 628.5,722.5C 628.225,720.391 627.058,719.058 625,718.5C 622.424,719.258 620.257,720.591 618.5,722.5C 617.833,722.167 617.167,721.833 616.5,721.5C 617.497,718.845 619.164,716.845 621.5,715.5 Z"/></g>
<g><path style="opacity:1" fill="#fcebe7" d="M 651.5,715.5 C 657.34,714.579 661.007,716.913 662.5,722.5C 662.152,724.697 661.152,726.53 659.5,728C 664.778,732.158 664.778,736.491 659.5,741C 655.428,741.956 651.595,741.456 648,739.5C 646.991,737.975 646.491,736.308 646.5,734.5C 649.114,734.277 650.781,735.444 651.5,738C 657.493,739.668 659.993,737.502 659,731.5C 657.103,729.984 654.936,729.317 652.5,729.5C 652.5,728.5 652.5,727.5 652.5,726.5C 655.864,727.127 657.864,725.794 658.5,722.5C 658.225,720.391 657.058,719.058 655,718.5C 652.424,719.258 650.257,720.591 648.5,722.5C 647.833,722.167 647.167,721.833 646.5,721.5C 647.497,718.845 649.164,716.845 651.5,715.5 Z"/></g>
<g><path style="opacity:1" fill="#fce2dc" d="M 671.5,715.5 C 678.088,715.657 680.588,718.99 679,725.5C 677.309,729.213 674.475,730.379 670.5,729C 666.432,724.174 666.765,719.674 671.5,715.5 Z"/></g>
<g><path style="opacity:1" fill="#dc3c16" d="M 671.5,718.5 C 672.833,718.5 674.167,718.5 675.5,718.5C 675.664,721.187 675.497,723.854 675,726.5C 674,727.833 673,727.833 672,726.5C 671.503,723.854 671.336,721.187 671.5,718.5 Z"/></g>
<g><path style="opacity:1" fill="#fcece8" d="M 687.5,727.5 C 695.121,727.946 697.621,731.946 695,739.5C 691.381,742.343 688.048,742.01 685,738.5C 683.946,734.345 684.78,730.678 687.5,727.5 Z"/></g>
<g><path style="opacity:1" fill="#dd401b" d="M 688.5,730.5 C 689.833,730.5 691.167,730.5 692.5,730.5C 692.664,733.187 692.497,735.854 692,738.5C 689.91,739.791 688.576,739.124 688,736.5C 687.322,734.402 687.489,732.402 688.5,730.5 Z"/></g>
<g><path style="opacity:1" fill="#fceae5" d="M 687.5,715.5 C 688.552,715.351 689.552,715.517 690.5,716C 685.833,724.333 681.167,732.667 676.5,741C 675.5,741.667 674.5,741.667 673.5,741C 678.306,732.553 682.973,724.053 687.5,715.5 Z"/></g>
<g><path style="opacity:1" fill="#fcede9" d="M 639.5,737.5 C 640.833,737.5 642.167,737.5 643.5,737.5C 643.5,738.833 643.5,740.167 643.5,741.5C 642.167,741.5 640.833,741.5 639.5,741.5C 639.5,740.167 639.5,738.833 639.5,737.5 Z"/></g>
<g><path style="opacity:1" fill="#ea8c76" d="M 595.5,739.5 C 600.735,741.45 606.402,742.117 612.5,741.5C 606.69,742.49 600.69,742.823 594.5,742.5C 594.263,741.209 594.596,740.209 595.5,739.5 Z"/></g>
</svg>
